<?xml version="1.0" encoding="UTF-8"?>
<svg version="1.1" xmlns="http://www.w3.org/2000/svg" width="255" height="167">
<path d="M0 0 C12.8001911 -0.55342528 25.34068158 6.15433697 34.67578125 14.69140625 C44.34432677 25.04911434 50.02065114 37.14762393 49.80859375 51.35546875 C48.7023115 64.60387322 44.23874255 76.93884084 34.48828125 86.19140625 C32.10938575 87.77733658 30.03026839 88.97048935 27.48828125 90.19140625 C26.54339844 90.68640625 25.59851563 91.18140625 24.625 91.69140625 C11.62118407 98.42812783 -0.61510085 100.43944703 -14.76171875 96.19140625 C-24.54173004 92.99981067 -32.33818107 87.42278982 -38.51171875 79.19140625 C-39.15882812 78.61648437 -39.8059375 78.0415625 -40.47265625 77.44921875 C-43.04574196 74.60009319 -43.96373966 71.94099792 -45.19921875 68.31640625 C-45.61558594 67.12273437 -46.03195313 65.9290625 -46.4609375 64.69921875 C-50.26194416 52.01035636 -49.45154404 36.92189229 -43.13671875 25.12890625 C-42.29617727 23.7940762 -41.42319968 22.47883926 -40.51171875 21.19140625 C-40.10824219 20.6190625 -39.70476562 20.04671875 -39.2890625 19.45703125 C-36.4987 15.83225167 -33.32886778 13.63438163 -29.51171875 11.19140625 C-28.48647979 10.19592357 -27.46594571 9.19558103 -26.44921875 8.19140625 C-19.4967238 2.07506882 -8.92928162 0.68045847 0 0 Z " fill="#F4DF7E" transform="translate(126.51171875,-0.19140625)"/>
<path d="M0 0 C0.99 0 1.98 0 3 0 C3 0.99 3 1.98 3 3 C7.455 2.505 7.455 2.505 12 2 C12.66 3.98 13.32 5.96 14 8 C12.02 8 10.04 8 8 8 C8.33 10.31 8.66 12.62 9 15 C9.66 15 10.32 15 11 15 C11 14.01 11 13.02 11 12 C11.99 12 12.98 12 14 12 C14.433125 13.36125 14.433125 13.36125 14.875 14.75 C15.76531776 17.32202908 16.71494413 19.61346766 18 22 C14.25 23.125 14.25 23.125 12 22 C12.66 23.65 13.32 25.3 14 27 C12.35 27 10.7 27 9 27 C13.22626431 31.78703077 19.8641856 33.9792986 26.125 34.5 C30.14735117 35.01901305 32.54209997 36.10955939 36.03515625 38.01171875 C38.93492638 39.47025124 41.85752808 40.21438202 45 41 C44.67 44.96 44.34 48.92 44 53 C44.99 53 45.98 53 47 53 C47 52.34 47 51.68 47 51 C50.3125 51.1875 50.3125 51.1875 54 52 C55.0409066 53.64142963 56.04504326 55.30712215 57 57 C59.62694422 57.41780879 59.62694422 57.41780879 62 57 C62.73253549 58.73144752 63.46482012 60.463002 64.1953125 62.1953125 C65.00035812 64.09142372 65.00035812 64.09142372 66.25 66.125 C67.31795782 68.79489455 66.86209361 70.28172398 66 73 C57.13643188 80.89730912 44.47274825 83.80779221 32.9375 83.44140625 C19.81370505 81.97018717 7.75198113 77.0883887 -0.9375 66.75 C-1.9584375 65.38875 -1.9584375 65.38875 -3 64 C-3.64710937 63.42507812 -4.29421875 62.85015625 -4.9609375 62.2578125 C-7.53402321 59.40868694 -8.45202091 56.74959167 -9.6875 53.125 C-10.10386719 51.93132812 -10.52023438 50.73765625 -10.94921875 49.5078125 C-14.75022541 36.81895011 -13.93982529 21.73048604 -7.625 9.9375 C-5.36233391 6.33904309 -2.96841552 3.04653172 0 0 Z " fill="#F6F8F9" transform="translate(91,15)"/>
<path d="M0 0 C5.36753493 12.14757905 1.50089297 26.60919268 -2.91015625 38.44140625 C-5.23038809 43.57404031 -8.75379494 48.29565405 -13 52 C-13.99 52 -14.98 52 -16 52 C-17.88695626 47.71146306 -19.58192622 43.47238653 -21 39 C-22.1446875 39.1546875 -22.1446875 39.1546875 -23.3125 39.3125 C-24.199375 39.209375 -25.08625 39.10625 -26 39 C-26.45375 38.21625 -26.9075 37.4325 -27.375 36.625 C-28.85861438 33.61786687 -28.85861438 33.61786687 -32.6875 32.6875 C-33.780625 32.460625 -34.87375 32.23375 -36 32 C-36 32.66 -36 33.32 -36 34 C-36.99 34 -37.98 34 -39 34 C-39 30.37 -39 26.74 -39 23 C-37.68 22.34 -36.36 21.68 -35 21 C-34.67 20.01 -34.34 19.02 -34 18 C-34.94875 18.04125 -35.8975 18.0825 -36.875 18.125 C-40 18 -40 18 -42 16 C-44.32275177 15.59952556 -46.65739357 15.2602896 -49 15 C-49 14.01 -49 13.02 -49 12 C-47.95199219 12.02320313 -46.90398437 12.04640625 -45.82421875 12.0703125 C-44.44531963 12.08907303 -43.0664128 12.10727293 -41.6875 12.125 C-40.65206055 12.15013672 -40.65206055 12.15013672 -39.59570312 12.17578125 C-35.82864604 12.21217794 -34.21568296 12.14378864 -31 10 C-30.74969023 7.41619823 -30.74969023 7.41619823 -31 5 C-33.31 5 -35.62 5 -38 5 C-38 4.01 -38 3.02 -38 2 C-36.04196493 1.94610913 -34.08351091 1.90725783 -32.125 1.875 C-30.48917969 1.84019531 -30.48917969 1.84019531 -28.8203125 1.8046875 C-26 2 -26 2 -24 4 C-24 4.99 -24 5.98 -24 7 C-20.31697544 6.40043786 -16.65530091 5.74980532 -13 5 C-12.113125 4.896875 -11.22625 4.79375 -10.3125 4.6875 C-7.83053709 4.24146406 -7.83053709 4.24146406 -6.875 2 C-6.58625 1.34 -6.2975 0.68 -6 0 C-3 -1 -3 -1 0 0 Z " fill="#FBFCFC" transform="translate(174,34)"/>
<path d="M0 0 C6.57534861 0.62031591 12.66692592 2.14897283 19 4 C19 5.32 19 6.64 19 8 C18.34 8.33 17.68 8.66 17 9 C16.53248212 11.35599235 16.53248212 11.35599235 16.375 14.0625 C16.30023438 14.98160156 16.22546875 15.90070313 16.1484375 16.84765625 C16.09945312 17.55792969 16.05046875 18.26820312 16 19 C20.70842624 16.88673474 20.70842624 16.88673474 24 13 C26.625 12.3125 26.625 12.3125 29 12 C29.33 10.35 29.66 8.7 30 7 C40.395 7.99 40.395 7.99 51 9 C51.33 8.01 51.66 7.02 52 6 C52.28875 6.9075 52.5775 7.815 52.875 8.75 C53.84374323 11.87808472 53.84374323 11.87808472 55.1875 14.0625 C56.3255249 16.77625167 55.88730079 18.21979086 55 21 C46.13643188 28.89730912 33.47274825 31.80779221 21.9375 31.44140625 C8.77094978 29.96539417 -3.34908524 25.06223935 -12 14.625 C-12.66 13.75875 -13.32 12.8925 -14 12 C-14.99 11.34 -15.98 10.68 -17 10 C-16.67 9.34 -16.34 8.68 -16 8 C-15.01 8.33 -14.02 8.66 -13 9 C-12.67 8.01 -12.34 7.02 -12 6 C-10.02 5.67 -8.04 5.34 -6 5 C-6 4.34 -6 3.68 -6 3 C-4.35 3 -2.7 3 -1 3 C-0.67 2.01 -0.34 1.02 0 0 Z " fill="#5971BD" transform="translate(102,67)"/>
<path d="M0 0 C8.93552255 1.25806996 17.52138272 7.99519648 23 15 C25.59495588 18.8672889 28.10604132 22.73859298 30 27 C29.505 28.485 29.505 28.485 29 30 C28.01 30 27.02 30 26 30 C25.79375 30.78375 25.5875 31.5675 25.375 32.375 C24 35 24 35 21.5 36.3125 C16.95892712 37.20449646 12.61089441 37.16402391 8 37 C7.814375 36.36191406 7.62875 35.72382812 7.4375 35.06640625 C6.10347257 32.65568572 6.10347257 32.65568572 2.875 32.27734375 C1.59625 32.16519531 0.3175 32.05304687 -1 31.9375 C-6.55772795 31.38092925 -11.60168563 30.43165672 -16.8515625 28.48828125 C-19.52405268 27.88089712 -21.36819267 28.31494966 -24 29 C-24.763125 29.185625 -25.52625 29.37125 -26.3125 29.5625 C-26.869375 29.706875 -27.42625 29.85125 -28 30 C-28.33 29.34 -28.66 28.68 -29 28 C-25.95842051 25.88011126 -24.26333795 25.01410739 -20.5 24.8125 C-17.03248875 24.37870413 -17.03248875 24.37870413 -15.6171875 22.33984375 C-14.77837395 20.92863227 -13.96496514 19.50205368 -13.17578125 18.0625 C-10.84525691 13.97440415 -7.77900938 11.44942849 -3.75 9.125 C-0.6237799 7.17165483 -0.6237799 7.17165483 -0.125 3.25 C-0.08375 2.1775 -0.0425 1.105 0 0 Z " fill="#EBB287" transform="translate(142,4)"/>
<path d="M0 0 C7.62575783 0.60521888 14.26591709 2.01864988 21.0625 5.625 C24.09572481 7.04480736 26.61994355 7.32275198 29.92578125 7.625 C32.95420394 8.17251145 35.35247857 9.55085467 38.03515625 11.01171875 C40.93492638 12.47025124 43.85752808 13.21438202 47 14 C46.67 17.96 46.34 21.92 46 26 C46.99 26 47.98 26 49 26 C49 25.34 49 24.68 49 24 C52.3125 24.1875 52.3125 24.1875 56 25 C57.0409066 26.64142963 58.04504326 28.30712215 59 30 C61.62694422 30.41780879 61.62694422 30.41780879 64 30 C64 31.32 64 32.64 64 34 C49.21867882 34.3690205 49.21867882 34.3690205 43 32 C43.020625 32.804375 43.04125 33.60875 43.0625 34.4375 C43 37 43 37 42 38 C40.33382885 38.04063832 38.66611905 38.042721 37 38 C36.731875 38.61875 36.46375 39.2375 36.1875 39.875 C35 42 35 42 32 44 C31.01 44 30.02 44 29 44 C29 40.7 29 37.4 29 34 C30.485 33.505 30.485 33.505 32 33 C32 31.68 32 30.36 32 29 C31.28714844 28.87882812 30.57429688 28.75765625 29.83984375 28.6328125 C24.44765159 27.68936031 19.22764328 26.62637791 14 25 C14.99 24.67 15.98 24.34 17 24 C16.20882096 22.00016466 16.20882096 22.00016466 15 20 C14.01 19.67 13.02 19.34 12 19 C11.95875 18.071875 11.9175 17.14375 11.875 16.1875 C11.441875 14.6096875 11.441875 14.6096875 11 13 C9.01679982 11.96708324 7.01652194 10.9662501 5 10 C4.375 7.4375 4.375 7.4375 4 5 C2.03241727 3.63979849 2.03241727 3.63979849 0 3 C0 2.01 0 1.02 0 0 Z " fill="#8EC5A3" transform="translate(89,42)"/>
<path d="M0 0 C0.60927658 5.13533117 0.60927658 5.13533117 0 8 C-2.0291624 10.15526854 -4.4817697 11.47539293 -7 13 C-10.23376704 15.84879477 -12.3242106 18.51463359 -14.375 22.25 C-15.60546875 24.3359375 -15.60546875 24.3359375 -17 26 C-20.6875 26.875 -20.6875 26.875 -24 27 C-24.66 27.66 -25.32 28.32 -26 29 C-26.99 29 -27.98 29 -29 29 C-28.125 23.125 -28.125 23.125 -27 22 C-26.86431681 18.33655389 -26.83538574 15.49384279 -28 12 C-30.50447516 10.78130071 -30.50447516 10.78130071 -33 10 C-33 9.34 -33 8.68 -33 8 C-35.64 7.67 -38.28 7.34 -41 7 C-40.9453125 5.16796875 -40.9453125 5.16796875 -40 3 C-37.57722837 1.87924155 -35.41027246 1.06485662 -32.875 0.3125 C-31.89660156 -0.00557617 -31.89660156 -0.00557617 -30.8984375 -0.33007812 C-20.76307252 -3.51748953 -9.63748829 -5.13999376 0 0 Z " fill="#F5F6F6" transform="translate(142,3)"/>
<path d="M0 0 C1.23363281 0.02707031 1.23363281 0.02707031 2.4921875 0.0546875 C4.49530804 0.1012717 6.49781821 0.17299301 8.5 0.25 C7.625 5 7.625 5 6.5 7.25 C3.21137848 8.69699347 0.20105258 8.01646817 -3.26171875 7.5078125 C-7.00283868 7.07689816 -10.74006464 7.17166801 -14.5 7.25 C-14.83 8.9 -15.16 10.55 -15.5 12.25 C-10.42567156 13.58534959 -6.70585613 12.77940459 -1.76953125 11.4296875 C0.5 11.25 0.5 11.25 2.30078125 12.5078125 C3.5 14.25 3.5 14.25 3.5 17.25 C-2.58291273 19.4163492 -7.1447755 20.7697276 -13.5 19.25 C-12.13516042 21.45808542 -12.13516042 21.45808542 -9.5 23.25 C-4.54749342 23.94707949 -0.7136258 24.05908387 3.5 21.25 C3.83 20.26 4.16 19.27 4.5 18.25 C6.5625 17.5625 6.5625 17.5625 8.5 17.25 C7.88133395 22.66332791 5.447286 25.58907958 1.375 29.0625 C-2.97870305 30.86076865 -6.86937103 31.12834389 -11.5 30.25 C-16.06894615 27.90869923 -19.60701082 25.1111227 -21.5 20.25 C-22.32328557 15.07095936 -21.939612 10.25155593 -18.91748047 5.86694336 C-13.93794183 0.18670147 -7.07810593 -0.29972436 0 0 Z " fill="#D8D8D8" transform="translate(232.5,102.75)"/>
<path d="M0 0 C1.20366211 0.00483398 1.20366211 0.00483398 2.43164062 0.00976562 C3.68170898 0.02233398 3.68170898 0.02233398 4.95703125 0.03515625 C6.22450195 0.04192383 6.22450195 0.04192383 7.51757812 0.04882812 C9.6015928 0.06060222 11.68557102 0.07853735 13.76953125 0.09765625 C13.3984375 3.0078125 13.3984375 3.0078125 12.76953125 6.09765625 C9.18880776 8.59331202 6.14705903 8.06777049 1.97265625 7.390625 C-1.75222885 6.89529453 -5.48032455 7.01952825 -9.23046875 7.09765625 C-9.56046875 9.07765625 -9.89046875 11.05765625 -10.23046875 13.09765625 C-4.59765276 13.33735055 0.31491956 12.48295446 5.76953125 11.09765625 C7.08953125 12.74765625 8.40953125 14.39765625 9.76953125 16.09765625 C4.54421562 19.5812 -1.04360245 20.40699957 -7.23046875 20.09765625 C-4.16802959 22.78350776 -2.23211216 23.50943583 1.83203125 23.47265625 C3.11787109 23.48425781 3.11787109 23.48425781 4.4296875 23.49609375 C7.22909971 23.01939918 8.07895977 22.34121841 9.76953125 20.09765625 C10.09953125 19.10765625 10.42953125 18.11765625 10.76953125 17.09765625 C11.75953125 17.09765625 12.74953125 17.09765625 13.76953125 17.09765625 C13.69383147 20.27704715 13.40185088 22.40655313 11.21484375 24.796875 C6.40328981 28.91963802 3.46434906 30.46081202 -2.9140625 30.37890625 C-7.58121609 29.81223667 -10.30060278 27.00239071 -13.54296875 23.84765625 C-15.70088276 20.33105564 -16.41663376 17.17001579 -16.23046875 13.09765625 C-14.53614224 7.21734659 -12.0701068 4.52573321 -7.23046875 1.09765625 C-4.46481493 0.17577164 -2.84763173 -0.02019597 0 0 Z " fill="#D7D7D7" transform="translate(57.23046875,102.90234375)"/>
<path d="M0 0 C2.84625 -0.0825 5.6925 -0.165 8.625 -0.25 C9.51010254 -0.28641602 10.39520508 -0.32283203 11.30712891 -0.36035156 C16.66871631 -0.43517002 19.81276382 0.32791275 24 4 C25.0894565 7.2683695 25.33086623 9.0583038 24.1875 12.3125 C23 14 23 14 21 15 C22.0209375 16.051875 22.0209375 16.051875 23.0625 17.125 C25 20 25 20 25.0625 23.0625 C23.68065473 26.88289574 22.48823169 27.90258889 19 30 C15.70876129 30.47887908 12.50420118 30.37761973 9.1875 30.25 C6.155625 30.1675 3.12375 30.085 0 30 C0 20.1 0 10.2 0 0 Z M7 3 C7 10.92 7 18.84 7 27 C15.40133391 27.01512945 15.40133391 27.01512945 18 24 C18.2500773 21.45809998 18.2500773 21.45809998 18 19 C17.67 18.67 17.34 18.34 17 18 C12.6590631 18.14158662 12.6590631 18.14158662 9 20 C9.24609375 18.1484375 9.24609375 18.1484375 10 16 C11.84765625 14.7265625 11.84765625 14.7265625 14.0625 13.625 C16.24410367 12.44721078 16.24410367 12.44721078 18 11 C18.67012422 7.7859186 18.67012422 7.7859186 18 5 C13.97066275 2.42122416 12.48465565 3 7 3 Z " fill="#9F9F9F" transform="translate(78,103)"/>
<path d="M0 0 C0.33 0.66 0.66 1.32 1 2 C2.30781354 2.7154341 3.64677361 3.37469962 5 4 C5.69996094 4.37898438 6.39992188 4.75796875 7.12109375 5.1484375 C13.04471431 8.28505952 18.96703492 10.36867739 25.41015625 12.203125 C28 13 28 13 29 14 C35.964378 15.1300373 42.9579763 15.31647283 50 15.5625 C51.15628906 15.60568359 52.31257813 15.64886719 53.50390625 15.69335938 C56.33583854 15.79867917 59.16784747 15.90081087 62 16 C62 16.66 62 17.32 62 18 C60.0848421 18.81604999 58.16781166 19.62770632 56.25 20.4375 C55.18265625 20.88996094 54.1153125 21.34242187 53.015625 21.80859375 C41.22097902 26.46839559 28.31265075 24.49982251 16.82763672 19.84326172 C9.50503841 16.46465438 3.83263491 11.34283331 -1 5 C-1.99 4.34 -2.98 3.68 -4 3 C-3.67 2.34 -3.34 1.68 -3 1 C-2.01 1.33 -1.02 1.66 0 2 C0 1.34 0 0.68 0 0 Z " fill="#B376E2" transform="translate(89,74)"/>
<path d="M0 0 C4.22642885 1.5087695 5.62694689 4.14153933 7.8125 7.9375 C8.43769531 8.99839844 9.06289062 10.05929688 9.70703125 11.15234375 C11 14 11 14 10 17 C9.01 17 8.02 17 7 17 C6.690625 18.175625 6.690625 18.175625 6.375 19.375 C5 22 5 22 2.5 23.3125 C-2.04107288 24.20449646 -6.38910559 24.16402391 -11 24 C-11.66 22.02 -12.32 20.04 -13 18 C-13.99 18 -14.98 18 -16 18 C-14.25192871 12.53262809 -12.34205919 7.24175152 -10 2 C-9.04287109 1.90912109 -9.04287109 1.90912109 -8.06640625 1.81640625 C-7.24011719 1.73261719 -6.41382813 1.64882813 -5.5625 1.5625 C-4.73878906 1.48128906 -3.91507813 1.40007813 -3.06640625 1.31640625 C-1.01337975 1.21069185 -1.01337975 1.21069185 0 0 Z " fill="#EAAB72" transform="translate(161,17)"/>
<path d="M0 0 C2.31 0 4.62 0 7 0 C7 8.91 7 17.82 7 27 C10.3 26.34 13.6 25.68 17 25 C17 16.75 17 8.5 17 0 C19.31 0 21.62 0 24 0 C24 9.9 24 19.8 24 30 C20.968125 30.103125 17.93625 30.20625 14.8125 30.3125 C13.86608643 30.35802002 12.91967285 30.40354004 11.94458008 30.45043945 C7.90052701 30.51697466 5.49465152 30.2748064 1.90625 28.28125 C-1.1037242 23.10014687 -0.52619694 18.05594675 -0.3125 12.1875 C-0.28994141 11.01767578 -0.26738281 9.84785156 -0.24414062 8.64257812 C-0.18532091 5.76041231 -0.10317141 2.88086319 0 0 Z " fill="#EFEFEF" transform="translate(110,103)"/>
<path d="M0 0 C2.31 0 4.62 0 7 0 C8.71360021 3.94902814 10.42247068 7.90005812 12.12695312 11.85302734 C12.70768151 13.19799169 13.28970745 14.54239653 13.87304688 15.88623047 C14.71043745 17.81593154 15.54316833 19.74758484 16.375 21.6796875 C16.87773437 22.84226074 17.38046875 24.00483398 17.8984375 25.20263672 C19 28 19 28 19 30 C16.69 30 14.38 30 12 30 C9 24.375 9 24.375 9 21 C5.75975058 22.76740878 3.2535127 24.69862199 0.625 27.25 C-2.29021998 29.83278261 -2.70984696 30 -6.875 30 C-7.90625 29.67 -8.9375 29.34 -10 29 C-11.82106867 25.35786266 -11.05960162 21.76688375 -10 18 C-8.12696014 14.52091062 -6.09894282 11.30476344 -3.91015625 8.015625 C-2.23445103 5.37013537 -1.04008706 2.94056027 0 0 Z M1 6 C-0.15754698 7.86779121 -1.30056261 9.74459249 -2.4375 11.625 C-3.39462891 13.19121094 -3.39462891 13.19121094 -4.37109375 14.7890625 C-5.98253252 17.9655677 -6.62485047 20.48099171 -7 24 C-3.68505995 23.42722418 -2.1765698 22.48387476 0.0625 20 C2.16638793 17.67846849 2.90402543 17.03199152 6 16 C5.55090939 14.51800098 5.09043436 13.03944764 4.625 11.5625 C4.36976563 10.73878906 4.11453125 9.91507813 3.8515625 9.06640625 C3.19117773 6.82201984 3.19117773 6.82201984 1 6 Z " fill="#D4D4D4" transform="translate(185,103)"/>
<path d="M0 0 C3.3 0 6.6 0 10 0 C10.66 1.32 11.32 2.64 12 4 C15.05908413 4.81584568 15.05908413 4.81584568 18 5 C18.33 8.63 18.66 12.26 19 16 C19.66 16 20.32 16 21 16 C21 16.99 21 17.98 21 19 C19.68 19.33 18.36 19.66 17 20 C17.020625 20.804375 17.04125 21.60875 17.0625 22.4375 C17 25 17 25 16 26 C14.33382885 26.04063832 12.66611905 26.042721 11 26 C10.731875 26.61875 10.46375 27.2375 10.1875 27.875 C9 30 9 30 6 32 C5.01 32 4.02 32 3 32 C3 28.7 3 25.4 3 22 C3.99 21.67 4.98 21.34 6 21 C5.814375 19.88625 5.62875 18.7725 5.4375 17.625 C5 14 5 14 6 12 C5.38125 11.87625 4.7625 11.7525 4.125 11.625 C2 11 2 11 0 9 C-0.27240673 5.98173347 -0.08675125 3.03629378 0 0 Z " fill="#F7FAFB" transform="translate(115,54)"/>
<path d="M0 0 C6.57534861 0.62031591 12.66692592 2.14897283 19 4 C19 5.32 19 6.64 19 8 C18.01 8.495 18.01 8.495 17 9 C16.53248212 11.35599235 16.53248212 11.35599235 16.375 14.0625 C16.30023438 14.98160156 16.22546875 15.90070313 16.1484375 16.84765625 C16.09945312 17.55792969 16.05046875 18.26820312 16 19 C17.65 18.67 19.3 18.34 21 18 C20.67 18.66 20.34 19.32 20 20 C21.32 20.66 22.64 21.32 24 22 C17.01229757 22.51760759 12.33888196 20.79487068 6 18 C4.29294285 17.35080099 2.58462034 16.70491869 0.875 16.0625 C-3.62853538 14.25253483 -8.34267129 12.25890463 -12 9 C-12 8.01 -12 7.02 -12 6 C-10.02 5.67 -8.04 5.34 -6 5 C-6 4.34 -6 3.68 -6 3 C-4.35 3 -2.7 3 -1 3 C-0.67 2.01 -0.34 1.02 0 0 Z " fill="#6880C8" transform="translate(102,67)"/>
<path d="M0 0 C6 0 6 0 8.125 2.0546875 C8.74375 2.98539062 9.3625 3.91609375 10 4.875 C11.00546875 6.36580078 11.00546875 6.36580078 12.03125 7.88671875 C14.76908063 12.21618504 17.43065868 16.56788623 20 21 C20 14.07 20 7.14 20 0 C21.65 0 23.3 0 25 0 C24.67 9.9 24.34 19.8 24 30 C18 30 18 30 16.12890625 28.19921875 C15.61199219 27.37035156 15.09507813 26.54148438 14.5625 25.6875 C13.985 24.78644531 13.4075 23.88539062 12.8125 22.95703125 C12.214375 21.98121094 11.61625 21.00539063 11 20 C9.68814756 17.95791719 8.37566898 15.91623645 7.0625 13.875 C6.03935251 12.25145607 5.01764672 10.62699749 4 9 C3.97280444 11.37507855 3.95306753 13.74983964 3.9375 16.125 C3.92912109 16.79015625 3.92074219 17.4553125 3.91210938 18.140625 C3.89217708 22.20681354 4.21109839 26.0120092 5 30 C3.35 30 1.7 30 0 30 C0 20.1 0 10.2 0 0 Z " fill="#DEDEDE" transform="translate(10,103)"/>
<path d="M0 0 C2.31 0 4.62 0 7 0 C7 7.92 7 15.84 7 24 C12.17711834 23.5528966 12.17711834 23.5528966 17.35107422 23.0715332 C19.22898138 22.93142941 21.11725348 22.96218585 23 23 C25 26 25 26 25 30 C22.5622037 30.05397335 20.12560315 30.09365616 17.6875 30.125 C16.65206055 30.15013672 16.65206055 30.15013672 15.59570312 30.17578125 C11.82864604 30.21217794 10.21568296 30.14378864 7 28 C6.67 28.66 6.34 29.32 6 30 C3.69 30.33 1.38 30.66 -1 31 C-0.67 20.77 -0.34 10.54 0 0 Z " fill="#C5C5C5" transform="translate(141,103)"/>
<path d="M0 0 C6.875 1.875 6.875 1.875 8 3 C8.04080783 4.99958364 8.04254356 7.00045254 8 9 C9.32 9.33 10.64 9.66 12 10 C12.33 11.32 12.66 12.64 13 14 C12.360625 14.28875 11.72125 14.5775 11.0625 14.875 C8.84793921 15.82823451 8.84793921 15.82823451 8 18 C6.35 18 4.7 18 3 18 C3 18.66 3 19.32 3 20 C2.030625 20.28875 1.06125 20.5775 0.0625 20.875 C-3.10664203 21.64214682 -3.10664203 21.64214682 -4 24 C-5.32 23.67 -6.64 23.34 -8 23 C-7.11392405 16.41772152 -7.11392405 16.41772152 -6.4375 13.9375 C-5.88079712 11.83299291 -5.88079712 11.83299291 -6.0625 8.9375 C-6 6 -6 6 -4 3 C-3.01 2.67 -2.02 2.34 -1 2 C-0.67 1.34 -0.34 0.68 0 0 Z " fill="#F7FAFC" transform="translate(93,52)"/>
<path d="M0 0 C0.33 0 0.66 0 1 0 C0.67 2.31 0.34 4.62 0 7 C0.66 7 1.32 7 2 7 C2.144375 8.093125 2.28875 9.18625 2.4375 10.3125 C2.88288104 13.93122987 2.88288104 13.93122987 4 17 C4.639375 17.103125 5.27875 17.20625 5.9375 17.3125 C8 18 8 18 9.4375 20.8125 C9.623125 21.864375 9.80875 22.91625 10 24 C9.54625 24.598125 9.0925 25.19625 8.625 25.8125 C6.36960128 28.84861366 6.84809826 31.20313502 7.08984375 34.87890625 C7 37 7 37 5 40 C4.61500109 41.65549531 4.27206865 43.3222433 4 45 C1.5474195 42.5474195 1.01296965 40.53774752 -0.0625 37.25 C-0.40410156 36.22390625 -0.74570313 35.1978125 -1.09765625 34.140625 C-4.49767458 22.30679496 -2.62548305 11.72090648 0 0 Z " fill="#5A74A9" transform="translate(81,30)"/>
<path d="M0 0 C4.18458462 0.57718409 7.01706351 1.98170962 10.5625 4.25 C11.49191406 4.83265625 12.42132813 5.4153125 13.37890625 6.015625 C16.1114553 8.08438047 17.98115022 10.24486383 20 13 C16.77967683 16.22032317 12.95689978 15.75274055 8.5546875 16.046875 C3.38608479 15.9787176 -1.15504927 14.71854966 -6 13 C-5.625 11.05078125 -5.625 11.05078125 -5 9 C-4.01 8.5978125 -4.01 8.5978125 -3 8.1875 C-2.01 7.5996875 -2.01 7.5996875 -1 7 C-0.18129815 3.43793339 -0.18129815 3.43793339 0 0 Z " fill="#DA8591" transform="translate(142,4)"/>
<path d="M0 0 C0.33 0.66 0.66 1.32 1 2 C2.86492402 2.38995102 2.86492402 2.38995102 5 2.5 C7.1875 2.65625 7.1875 2.65625 9 3 C9.33 3.66 9.66 4.32 10 5 C11.2375 5.4640625 11.2375 5.4640625 12.5 5.9375 C13.325 6.288125 14.15 6.63875 15 7 C16.1845131 10.55353929 16.26641894 13.27013478 16 17 C14.5 18.9375 14.5 18.9375 13 20 C5.09768638 15.8251928 5.09768638 15.8251928 3 12 C3 11.01 3 10.02 3 9 C-1.455 9.495 -1.455 9.495 -6 10 C-6.33 8.68 -6.66 7.36 -7 6 C-4.69 4.02 -2.38 2.04 0 0 Z " fill="#EBB78A" transform="translate(100,8)"/>
<path d="M0 0 C5.94 1.485 5.94 1.485 12 3 C11.67 6.96 11.34 10.92 11 15 C11.99 15 12.98 15 14 15 C14 14.34 14 13.68 14 13 C17.3125 13.1875 17.3125 13.1875 21 14 C22.0409066 15.64142963 23.04504326 17.30712215 24 19 C26.62694422 19.41780879 26.62694422 19.41780879 29 19 C29 20.32 29 21.64 29 23 C26.77090129 23.02714735 24.54170633 23.04646254 22.3125 23.0625 C21.07113281 23.07410156 19.82976562 23.08570312 18.55078125 23.09765625 C15.53764546 23.01478673 12.91724661 22.70839449 10 22 C10 21.34 10 20.68 10 20 C10.66 20 11.32 20 12 20 C12 19.01 12 18.02 12 17 C11.34 17 10.68 17 10 17 C8.79727181 14.59454362 8.89928528 13.05003047 8.9375 10.375 C8.95103516 9.14910156 8.95103516 9.14910156 8.96484375 7.8984375 C8.97644531 7.27195312 8.98804688 6.64546875 9 6 C7.02 6 5.04 6 3 6 C2.01 4.02 1.02 2.04 0 0 Z " fill="#83BF94" transform="translate(124,53)"/>
<path d="M0 0 C1.23363281 0.02707031 1.23363281 0.02707031 2.4921875 0.0546875 C4.49530804 0.1012717 6.49781821 0.17299301 8.5 0.25 C7.625 5 7.625 5 6.5 7.25 C3.20781391 8.69856188 0.19522521 8.00411361 -3.2734375 7.5234375 C-7.02269723 7.06300209 -10.74914304 6.66297564 -14.5 7.25 C-16.62355567 9.07271927 -16.62355567 9.07271927 -17.5 11.25 C-17.83 10.59 -18.16 9.93 -18.5 9.25 C-18.83 13.54 -19.16 17.83 -19.5 22.25 C-21.86092149 19.88907851 -21.81949234 19.28749516 -21.875 16.0625 C-21.73452465 11.2082964 -20.70946426 7.91219441 -17.5 4.25 C-11.90567233 0.28214083 -6.68970442 -0.28327739 0 0 Z " fill="#CECECE" transform="translate(232.5,102.75)"/>
<path d="M0 0 C2.475 0.495 2.475 0.495 5 1 C6.3125 3.5625 6.3125 3.5625 7 6 C7.5775 5.01 8.155 4.02 8.75 3 C9.4925 2.01 10.235 1.02 11 0 C12.32 0 13.64 0 15 0 C15 4.62 15 9.24 15 14 C10 14 5 14 0 14 C0 9.38 0 4.76 0 0 Z " fill="#9B9B9B" transform="translate(155,152)"/>
<path d="M0 0 C5 1 5 1 6.8125 3.5625 C7.204375 4.366875 7.59625 5.17125 8 6 C8.99 4.02 9.98 2.04 11 0 C12.32 0 13.64 0 15 0 C15 4.62 15 9.24 15 14 C13.35 13.67 11.7 13.34 10 13 C8.32577014 13.29299023 6.65821773 13.62690101 5 14 C3.35 14 1.7 14 0 14 C0 9.38 0 4.76 0 0 Z " fill="#646464" transform="translate(133,152)"/>
<path d="M0 0 C4.22642885 1.5087695 5.62694689 4.14153933 7.8125 7.9375 C8.43769531 8.99839844 9.06289062 10.05929688 9.70703125 11.15234375 C11 14 11 14 10 17 C9.01 17 8.02 17 7 17 C6.67 18.32 6.34 19.64 6 21 C4.02 21 2.04 21 0 21 C-0.06058594 20.13117187 -0.12117187 19.26234375 -0.18359375 18.3671875 C-0.26738281 17.21476562 -0.35117188 16.06234375 -0.4375 14.875 C-0.51871094 13.73804688 -0.59992188 12.60109375 -0.68359375 11.4296875 C-0.93914629 8.00363167 -0.93914629 8.00363167 -1.66015625 4.6953125 C-1.77230469 3.80585938 -1.88445312 2.91640625 -2 2 C-1.34 1.34 -0.68 0.68 0 0 Z " fill="#E5A258" transform="translate(161,17)"/>
<path d="M0 0 C3.3 0 6.6 0 10 0 C10.12375 1.670625 10.12375 1.670625 10.25 3.375 C10.58099281 7.01463632 10.58099281 7.01463632 12.875 8.375 C13.57625 8.58125 14.2775 8.7875 15 9 C15.99 9.33 16.98 9.66 18 10 C17.67 11.65 17.34 13.3 17 15 C14.72755724 14.54971412 12.45708123 14.08949383 10.1875 13.625 C8.29064453 13.24214844 8.29064453 13.24214844 6.35546875 12.8515625 C3 12 3 12 0 10 C0.99 10 1.98 10 3 10 C1.6910428 6.87802522 1.6910428 6.87802522 -1 5 C-0.67 3.35 -0.34 1.7 0 0 Z " fill="#7AB98F" transform="translate(103,56)"/>
<path d="M0 0 C5 1 5 1 6.8125 3.0625 C7.204375 3.701875 7.59625 4.34125 8 5 C8.33 3.35 8.66 1.7 9 0 C10.32 0 11.64 0 13 0 C13 4.62 13 9.24 13 14 C11.35 13.67 9.7 13.34 8 13 C7.34 12.01 6.68 11.02 6 10 C5.67 11.32 5.34 12.64 5 14 C3.35 14 1.7 14 0 14 C0 9.38 0 4.76 0 0 Z " fill="#A9A9A9" transform="translate(195,152)"/>
<path d="M0 0 C1.65 0 3.3 0 5 0 C5 9.24 5 18.48 5 28 C2.69 27.67 0.38 27.34 -2 27 C-2 26.01 -2 25.02 -2 24 C-1.34 24.33 -0.68 24.66 0 25 C0 16.75 0 8.5 0 0 Z " fill="#EDEDED" transform="translate(128,104)"/>
<path d="M0 0 C2.3121447 1.79833477 3.66314401 3.30383095 4.9375 5.9375 C5.02874 8.94842003 3.69664528 10.58554326 2 13 C1 14 1 14 -2.375 14.25 C-6 14 -6 14 -7.875 12.8125 C-9.32341076 10.47894933 -9.79934207 8.74232501 -10 6 C-8.31055166 1.07244235 -5.11842093 -0.74903721 0 0 Z M-3 4 C-3.99 4.495 -3.99 4.495 -5 5 C-4.67 6.65 -4.34 8.3 -4 10 C-2.68 9.67 -1.36 9.34 0 9 C0 7.68 0 6.36 0 5 C-0.99 4.67 -1.98 4.34 -3 4 Z " fill="#B3B3B3" transform="translate(122,152)"/>
<path d="M0 0 C3.69212837 -0.3434538 5.60790131 -0.221621 8.875 1.625 C11 4 11 4 11.5625 7 C11 10 11 10 9.4375 12.375 C6.15988698 14.56007535 3.85797355 14.36395977 0 14 C-1 13 -1 13 -1.1328125 10.56640625 C-1.13023438 9.57511719 -1.12765625 8.58382812 -1.125 7.5625 C-1.12757812 6.57378906 -1.13015625 5.58507812 -1.1328125 4.56640625 C-1 2 -1 2 0 0 Z M4 4 C4 5.98 4 7.96 4 10 C4.99 9.67 5.98 9.34 7 9 C7 7.68 7 6.36 7 5 C6.01 4.67 5.02 4.34 4 4 Z " fill="#737373" transform="translate(48,152)"/>
<path d="M0 0 C7 0 7 0 10 2 C10.1875 4.4375 10.1875 4.4375 10 7 C10 9.62113708 10.31292445 11.50935112 11 14 C8.5625 13.625 8.5625 13.625 6 13 C5.67 12.34 5.34 11.68 5 11 C4.67 11.99 4.34 12.98 4 14 C2.68 14 1.36 14 0 14 C0 9.38 0 4.76 0 0 Z " fill="#EDEDED" transform="translate(19,152)"/>
<path d="M0 0 C0.99 0.66 1.98 1.32 3 2 C3 3.32 3 4.64 3 6 C0.36 5.67 -2.28 5.34 -5 5 C-5 6.65 -5 8.3 -5 10 C-3.8553125 9.505 -3.8553125 9.505 -2.6875 9 C0 8 0 8 3 8 C2.125 12.875 2.125 12.875 1 14 C-2.3125 14.375 -2.3125 14.375 -6 14 C-8.5 11.875 -8.5 11.875 -10 9 C-10 5.43909099 -9.69349238 3.74302755 -7.25 1.125 C-4.56592875 -0.21703562 -2.96605121 -0.38026298 0 0 Z " fill="#B9B9B9" transform="translate(103,152)"/>
<path d="M0 0 C1.32 0 2.64 0 4 0 C4 3.3 4 6.6 4 10 C4.99 10 5.98 10 7 10 C7 6.7 7 3.4 7 0 C8.32 0 9.64 0 11 0 C11.05389087 1.95803507 11.09274217 3.91648909 11.125 5.875 C11.14820313 6.96554688 11.17140625 8.05609375 11.1953125 9.1796875 C11 12 11 12 9 14 C5.5 14.25 5.5 14.25 2 14 C0 12 0 12 -0.1953125 9.1796875 C-0.17210937 8.08914062 -0.14890625 6.99859375 -0.125 5.875 C-0.10695312 4.77929688 -0.08890625 3.68359375 -0.0703125 2.5546875 C-0.04710937 1.71164063 -0.02390625 0.86859375 0 0 Z " fill="#B7B7B7" transform="translate(177,152)"/>
<path d="M0 0 C2.97 0 5.94 0 9 0 C8.814375 0.721875 8.62875 1.44375 8.4375 2.1875 C7.97407988 5.16662935 8.32844749 7.08993911 9 10 C9 11.32 9 12.64 9 14 C6.03 14 3.06 14 0 14 C0 9.38 0 4.76 0 0 Z " fill="#878787" transform="translate(66,152)"/>
<path d="M0 0 C0.33 0 0.66 0 1 0 C0.67 2.31 0.34 4.62 0 7 C0.66 7 1.32 7 2 7 C2.144375 8.093125 2.28875 9.18625 2.4375 10.3125 C2.88288104 13.93122987 2.88288104 13.93122987 4 17 C4.639375 17.103125 5.27875 17.20625 5.9375 17.3125 C6.618125 17.539375 7.29875 17.76625 8 18 C9.25 21.0625 9.25 21.0625 10 24 C9.01 24.99 8.02 25.98 7 27 C3.56299309 25.52699704 1.26590251 24.00078981 -1 21 C-1.52101785 17.96663559 -1.42215289 15.00534416 -1.3125 11.9375 C-1.30283203 11.12216797 -1.29316406 10.30683594 -1.28320312 9.46679688 C-1.21778607 6.00538115 -1.10414863 3.3124459 0 0 Z " fill="#82BF9D" transform="translate(81,30)"/>
<path d="M0 0 C0.33 0 0.66 0 1 0 C1.60927658 5.13533117 1.60927658 5.13533117 1 8 C-1.0291624 10.15526854 -3.4817697 11.47539293 -6 13 C-9.23376704 15.84879477 -11.3242106 18.51463359 -13.375 22.25 C-14.60546875 24.3359375 -14.60546875 24.3359375 -16 26 C-19.6875 26.875 -19.6875 26.875 -23 27 C-23.66 27.66 -24.32 28.32 -25 29 C-25.99 29 -26.98 29 -28 29 C-27.67 27.02 -27.34 25.04 -27 23 C-26.67 23.66 -26.34 24.32 -26 25 C-25.01 24.34 -24.02 23.68 -23 23 C-21.515 22.87625 -21.515 22.87625 -20 22.75 C-19.01 22.5025 -18.02 22.255 -17 22 C-15.37492804 19.1668838 -15.37492804 19.1668838 -14 16 C-11.625 13.9375 -11.625 13.9375 -9 12 C-8.154375 11.0925 -7.30875 10.185 -6.4375 9.25 C-4 7 -4 7 0 7 C0 4.69 0 2.38 0 0 Z " fill="#EAF1F6" transform="translate(141,3)"/>
<path d="M0 0 C0.33 0.66 0.66 1.32 1 2 C7.7057145 4.88373319 14.78339213 5.60212618 22 6 C22.66 5.01 23.32 4.02 24 3 C24 6.3 24 9.6 24 13 C17.73056336 12.53507548 13.1700733 11.02758058 7.625 8.125 C6.91472656 7.77308594 6.20445313 7.42117187 5.47265625 7.05859375 C2.07462439 5.32411449 0.15063431 4.22595147 -2 1 C-1.34 0.67 -0.68 0.34 0 0 Z " fill="#6071C4" transform="translate(93,74)"/>
<path d="M0 0 C4.20553683 6.91390255 2.58787997 16.40090794 0.76757812 23.93774414 C-0.85461562 30.00949288 -2.76396312 35.6066052 -6 41 C-6.99 41.495 -6.99 41.495 -8 42 C-9.23076923 36.58461538 -9.23076923 36.58461538 -8.0625 33.625 C-7.711875 33.08875 -7.36125 32.5525 -7 32 C-5.68 32 -4.36 32 -3 32 C-2.86722656 31.26394531 -2.73445312 30.52789062 -2.59765625 29.76953125 C-2.42105469 28.79371094 -2.24445313 27.81789063 -2.0625 26.8125 C-1.88847656 25.84957031 -1.71445313 24.88664062 -1.53515625 23.89453125 C-1.0476265 21.25760028 -0.53328895 18.6280095 0 16 C-0.66 16 -1.32 16 -2 16 C-2.20674944 10.21101581 -1.59162079 5.57067277 0 0 Z " fill="#C5CBCF" transform="translate(174,37)"/>
<path d="M0 0 C1.32 0 2.64 0 4 0 C4 8.58 4 17.16 4 26 C2.68 26 1.36 26 0 26 C0 17.42 0 8.84 0 0 Z " fill="#F4F4F4" transform="translate(80,105)"/>
<path d="M0 0 C7 0 7 0 9 1.1875 C10 3 10 3 9.6875 5.6875 C9.460625 6.450625 9.23375 7.21375 9 8 C7.35 8.33 5.7 8.66 4 9 C4 10.65 4 12.3 4 14 C2.68 14 1.36 14 0 14 C0 9.38 0 4.76 0 0 Z " fill="#686868" transform="translate(3,152)"/>
<path d="M0 0 C2.31 0 4.62 0 7 0 C7 9.9 7 19.8 7 30 C0.73 30 -5.54 30 -12 30 C-11.01 29.67 -10.02 29.34 -9 29 C-9 28.34 -9 27.68 -9 27 C-2.375 25.75 -2.375 25.75 1 28 C2.65 28.33 4.3 28.66 6 29 C6 19.76 6 10.52 6 1 C4.35 1 2.7 1 1 1 C1 9.25 1 17.5 1 26 C0.34 25.67 -0.32 25.34 -1 25 C-0.67 16.75 -0.34 8.5 0 0 Z " fill="#3D3D3D" transform="translate(127,103)"/>
<path d="M0 0 C3.63 0 7.26 0 11 0 C11 1.32 11 2.64 11 4 C10.01 4 9.02 4 8 4 C8 7.3 8 10.6 8 14 C6.35 14 4.7 14 3 14 C3 10.7 3 7.4 3 4 C2.01 4 1.02 4 0 4 C0 2.68 0 1.36 0 0 Z " fill="#9B9B9B" transform="translate(225,152)"/>
<path d="M0 0 C1.65 0 3.3 0 5 0 C4.67 9.9 4.34 19.8 4 30 C2.02 30 0.04 30 -2 30 C-2 29.67 -2 29.34 -2 29 C-0.35 29 1.3 29 3 29 C3 27.68 3 26.36 3 25 C2.01 25 1.02 25 0 25 C0 16.75 0 8.5 0 0 Z " fill="#757575" transform="translate(30,103)"/>
<path d="M0 0 C1.98 0 3.96 0 6 0 C6 0.33 6 0.66 6 1 C4.35 1 2.7 1 1 1 C1 2.32 1 3.64 1 5 C1.66 5 2.32 5 3 5 C3.06058594 6.30195312 3.12117187 7.60390625 3.18359375 8.9453125 C3.26804562 10.67188399 3.35269126 12.398446 3.4375 14.125 C3.47681641 14.9809375 3.51613281 15.836875 3.55664062 16.71875 C3.78156402 21.21721792 4.13540883 25.56806207 5 30 C3.35 30 1.7 30 0 30 C0 20.1 0 10.2 0 0 Z " fill="#585858" transform="translate(10,103)"/>
<path d="M0 0 C1.1446875 0.2475 1.1446875 0.2475 2.3125 0.5 C5.87060352 1.16197275 8.55226389 0.95109962 12 0 C11.125 4.875 11.125 4.875 10 6 C9.76924918 7.34747084 9.58846937 8.70377565 9.4375 10.0625 C9.293125 11.361875 9.14875 12.66125 9 14 C7.35 14 5.7 14 4 14 C3.87882813 13.40832031 3.75765625 12.81664062 3.6328125 12.20703125 C2.73255357 7.96196415 1.79543379 3.97560339 0 0 Z " fill="#AFAFAF" transform="translate(240,152)"/>
<path d="M0 0 C0.66 0 1.32 0 2 0 C1.8125 2.875 1.8125 2.875 1 6 C-1.375 7.4375 -1.375 7.4375 -4 8 C-4.99 7.67 -5.98 7.34 -7 7 C-7 6.34 -7 5.68 -7 5 C-11.62 5 -16.24 5 -21 5 C-17.62692308 1.62692308 -17.62692308 1.62692308 -14.0234375 1.5234375 C-13.270625 1.4925 -12.5178125 1.4615625 -11.7421875 1.4296875 C-10.96101563 1.41164063 -10.17984375 1.39359375 -9.375 1.375 C-4.2831685 1.67605246 -4.2831685 1.67605246 0 0 Z " fill="#E3E3E3" transform="translate(69,103)"/>
<path d="M0 0 C2.31 0 4.62 0 7 0 C7 0.33 7 0.66 7 1 C5.02 1 3.04 1 1 1 C1 1.99 1 2.98 1 4 C1.99 4.33 2.98 4.66 4 5 C3.67 6.32 3.34 7.64 3 9 C2.67 8.34 2.34 7.68 2 7 C0.86676537 8.70288198 -0.25622235 10.41258523 -1.375 12.125 C-2.00148437 13.07632813 -2.62796875 14.02765625 -3.2734375 15.0078125 C-4.97681069 17.95981219 -6.04193409 20.73870494 -7 24 C-7.33 22.68 -7.66 21.36 -8 20 C-8.66 20 -9.32 20 -10 20 C-8.53524189 16.01055832 -6.62274587 12.51555575 -4.4375 8.875 C-2.64686939 5.88937474 -1.10117028 3.30351083 0 0 Z " fill="#ACACAC" transform="translate(185,103)"/>
<path d="M0 0 C0.99 0 1.98 0 3 0 C3.28875 0.9075 3.5775 1.815 3.875 2.75 C4.76531776 5.32202908 5.71494413 7.61346766 7 10 C3.25 11.125 3.25 11.125 1 10 C1.66 11.65 2.32 13.3 3 15 C2.21625 14.979375 1.4325 14.95875 0.625 14.9375 C-1.98114961 14.81315937 -1.98114961 14.81315937 -4 16 C-4.33 15.01 -4.66 14.02 -5 13 C-1.67692308 9.06153846 -1.67692308 9.06153846 1.75 8.75 C2.4925 8.8325 3.235 8.915 4 9 C4 8.34 4 7.68 4 7 C2.16715557 5.87483915 2.16715557 5.87483915 0 5 C-0.99 5.33 -1.98 5.66 -3 6 C-3 4.35 -3 2.7 -3 1 C-2.67 1.66 -2.34 2.32 -2 3 C-1.34 3 -0.68 3 0 3 C0 2.01 0 1.02 0 0 Z " fill="#E9EFE6" transform="translate(102,27)"/>
<path d="M0 0 C0.99 0 1.98 0 3 0 C2.92430022 3.1793909 2.63231963 5.30889688 0.4453125 7.69921875 C-3.55307477 11.12522278 -6.13387777 13.14394381 -11.5 13.1875 C-12.2940625 13.20167969 -13.088125 13.21585938 -13.90625 13.23046875 C-16 13 -16 13 -18 11 C-14.04 11 -10.08 11 -6 11 C-6 10.34 -6 9.68 -6 9 C-8.31 8.67 -10.62 8.34 -13 8 C-13 7.67 -13 7.34 -13 7 C-12.38511719 6.96261719 -11.77023438 6.92523438 -11.13671875 6.88671875 C-10.32847656 6.82097656 -9.52023438 6.75523438 -8.6875 6.6875 C-7.88699219 6.62949219 -7.08648437 6.57148437 -6.26171875 6.51171875 C-3.58013375 5.90500435 -2.6646627 5.15637846 -1 3 C-0.67 2.01 -0.34 1.02 0 0 Z " fill="#9B9B9B" transform="translate(68,120)"/>
<path d="M0 0 C5.01113235 1.4317521 6.94469549 3.98445693 10 8 C8 10 8 10 5.8359375 10.1953125 C3.55729167 10.13020833 1.27864583 10.06510417 -1 10 C-0.67 6.7 -0.34 3.4 0 0 Z " fill="#D8747A" transform="translate(152,9)"/>
<path d="M0 0 C2.475 0.495 2.475 0.495 5 1 C5 4.96 5 8.92 5 13 C3.35 13.33 1.7 13.66 0 14 C0 9.38 0 4.76 0 0 Z " fill="#989898" transform="translate(36,152)"/>
<path d="M0 0 C2.31 0 4.62 0 7 0 C7 7.59 7 15.18 7 23 C6.34 23 5.68 23 5 23 C5 16.07 5 9.14 5 2 C4.01 2.33 3.02 2.66 2 3 C1.67 10.92 1.34 18.84 1 27 C0.67 27 0.34 27 0 27 C0 18.09 0 9.18 0 0 Z " fill="#7E7E7E" transform="translate(141,103)"/>
<path d="M0 0 C-0.61866605 5.41332791 -3.052714 8.33907958 -7.125 11.8125 C-11.37914967 13.56964877 -15.45768866 13.23814059 -20 13 C-20 12.67 -20 12.34 -20 12 C-19.28972656 11.86722656 -18.57945312 11.73445312 -17.84765625 11.59765625 C-16.92855469 11.42105469 -16.00945312 11.24445313 -15.0625 11.0625 C-14.14597656 10.88847656 -13.22945312 10.71445313 -12.28515625 10.53515625 C-10.04710156 10.22285012 -10.04710156 10.22285012 -9 9 C-11.31 8.67 -13.62 8.34 -16 8 C-16 7.67 -16 7.34 -16 7 C-15.30132812 6.90203125 -14.60265625 6.8040625 -13.8828125 6.703125 C-12.51769531 6.47882813 -12.51769531 6.47882813 -11.125 6.25 C-10.22007812 6.11078125 -9.31515625 5.9715625 -8.3828125 5.828125 C-5.84553311 5.23341378 -5.84553311 5.23341378 -4.8046875 2.984375 C-4.53914062 2.32953125 -4.27359375 1.6746875 -4 1 C-2 0 -2 0 0 0 Z " fill="#8E8E8E" transform="translate(241,120)"/>
<path d="M0 0 C2.31 0 4.62 0 7 0 C7 8.58 7 17.16 7 26 C6.34 26 5.68 26 5 26 C5 18.08 5 10.16 5 2 C4.01 2.33 3.02 2.66 2 3 C1.67 10.26 1.34 17.52 1 25 C0.67 25 0.34 25 0 25 C0 16.75 0 8.5 0 0 Z " fill="#7F7F7F" transform="translate(110,103)"/>
<path d="M0 0 C0.8353125 0.7425 0.8353125 0.7425 1.6875 1.5 C4.38162983 3.24754367 5.85375007 3.26218749 9 3 C9 4.32 9 5.64 9 7 C6.77090129 7.02714735 4.54170633 7.04646254 2.3125 7.0625 C1.07113281 7.07410156 -0.17023438 7.08570312 -1.44921875 7.09765625 C-4.46235454 7.01478673 -7.08275339 6.70839449 -10 6 C-9.01 5.34 -8.02 4.68 -7 4 C-7 3.34 -7 2.68 -7 2 C-6.34 2 -5.68 2 -5 2 C-4.34 2.66 -3.68 3.32 -3 4 C-2.01 3.67 -1.02 3.34 0 3 C0 2.01 0 1.02 0 0 Z " fill="#72B182" transform="translate(144,69)"/>
<path d="M0 0 C0.33 1.32 0.66 2.64 1 4 C0.236875 4.515625 -0.52625 5.03125 -1.3125 5.5625 C-4.27624865 7.85766988 -4.27624865 7.85766988 -5.25 11.625 C-7 15 -7 15 -9.0078125 15.82421875 C-10.58654176 16.14986422 -12.17503982 16.43126611 -13.76953125 16.66796875 C-16.37743763 17.05618599 -18.60388275 17.91788253 -21 19 C-21.33 18.34 -21.66 17.68 -22 17 C-18.95842051 14.88011126 -17.26333795 14.01410739 -13.5 13.8125 C-10.03248875 13.37870413 -10.03248875 13.37870413 -8.6171875 11.33984375 C-7.78266116 9.93584503 -6.97679587 8.51444685 -6.19921875 7.078125 C-4.52966066 4.18494942 -2.45407732 2.24372783 0 0 Z " fill="#CFAF89" transform="translate(135,15)"/>
<path d="M0 0 C0 0.33 0 0.66 0 1 C-1.80597656 1.09087891 -1.80597656 1.09087891 -3.6484375 1.18359375 C-5.22397077 1.26799732 -6.79949096 1.35264541 -8.375 1.4375 C-9.1690625 1.47681641 -9.963125 1.51613281 -10.78125 1.55664062 C-15.02601221 1.68893404 -15.02601221 1.68893404 -19 3 C-14.71 3.33 -10.42 3.66 -6 4 C-6 4.66 -6 5.32 -6 6 C-10.62 6 -15.24 6 -20 6 C-20.33 7.65 -20.66 9.3 -21 11 C-21.99 9.68 -22.98 8.36 -24 7 C-22.60415208 3.62670085 -21.07634389 1.95767338 -18 0 C-12.11981331 -1.96006223 -6.00309571 -1.00051595 0 0 Z " fill="#888888" transform="translate(68,104)"/>
<path d="M0 0 C0.66 0.33 1.32 0.66 2 1 C4.37123246 1.23029956 6.74741943 1.41119942 9.125 1.5625 C10.40632812 1.64628906 11.68765625 1.73007813 13.0078125 1.81640625 C14.48894531 1.90728516 14.48894531 1.90728516 16 2 C16 2.66 16 3.32 16 4 C14.53626953 3.93039063 14.53626953 3.93039063 13.04296875 3.859375 C11.13451172 3.80523437 11.13451172 3.80523437 9.1875 3.75 C7.92292969 3.70359375 6.65835938 3.6571875 5.35546875 3.609375 C1.92720152 3.64931108 1.92720152 3.64931108 0.05078125 6.015625 C-0.29597656 6.67046875 -0.64273438 7.3253125 -1 8 C-1.33 7.34 -1.66 6.68 -2 6 C-2.33 10.29 -2.66 14.58 -3 19 C-5.36092149 16.63907851 -5.31949234 16.03749516 -5.375 12.8125 C-5.28452151 7.72102835 -3.6800346 3.6800346 0 0 Z " fill="#8C8C8C" transform="translate(216,106)"/>
<path d="M0 0 C1.98 0.66 3.96 1.32 6 2 C5.67 2.66 5.34 3.32 5 4 C4.01 3.67 3.02 3.34 2 3 C3.3089572 6.12197478 3.3089572 6.12197478 6 8 C6.75 10.375 6.75 10.375 7 13 C6.01 14.485 6.01 14.485 5 16 C4.34 15.67 3.68 15.34 3 15 C2.375 11.9375 2.375 11.9375 2 9 C0.68 8.67 -0.64 8.34 -2 8 C-1.125 1.125 -1.125 1.125 0 0 Z " fill="#DDECEC" transform="translate(87,39)"/>
<path d="M0 0 C7 0 7 0 10 2 C10.1875 4.625 10.1875 4.625 10 7 C9.01 5.68 8.02 4.36 7 3 C7 3.99 7 4.98 7 6 C5.68 6 4.36 6 3 6 C2.67 8.31 2.34 10.62 2 13 C2.66 13.33 3.32 13.66 4 14 C2.68 14 1.36 14 0 14 C0 9.38 0 4.76 0 0 Z " fill="#8C8C8C" transform="translate(19,152)"/>
<path d="M0 0 C1.65 0 3.3 0 5 0 C3.68 0.33 2.36 0.66 1 1 C1 9.58 1 18.16 1 27 C10.05880533 26.33786475 10.05880533 26.33786475 15 25 C15 25.33 15 25.66 15 26 C16.65 26.33 18.3 26.66 20 27 C20 27.33 20 27.66 20 28 C13.4 28 6.8 28 0 28 C0 18.76 0 9.52 0 0 Z " fill="#CECECE" transform="translate(79,104)"/>
<path d="M0 0 C1.32 0 2.64 0 4 0 C4 4.62 4 9.24 4 14 C2.68 14 1.36 14 0 14 C0 9.38 0 4.76 0 0 Z " fill="#A3A3A3" transform="translate(215,152)"/>
<path d="M0 0 C1.32 0 2.64 0 4 0 C4 3.96 4 7.92 4 12 C2.02 12.99 2.02 12.99 0 14 C0 13.34 0 12.68 0 12 C-0.66 11.34 -1.32 10.68 -2 10 C-1.34 10 -0.68 10 0 10 C0 6.7 0 3.4 0 0 Z " fill="#616161" transform="translate(184,152)"/>
<path d="M0 0 C1.32 0 2.64 0 4 0 C4.66 2.97 5.32 5.94 6 9 C5.01 9 4.02 9 3 9 C3 9.99 3 10.98 3 12 C2.01 12 1.02 12 0 12 C0 8.04 0 4.08 0 0 Z " fill="#D2D2D2" transform="translate(134,153)"/>
<path d="M0 0 C1.95803507 -0.05389087 3.91648909 -0.09274217 5.875 -0.125 C7.51082031 -0.15980469 7.51082031 -0.15980469 9.1796875 -0.1953125 C12 0 12 0 14 2 C14 2.99 14 3.98 14 5 C14.66 5.33 15.32 5.66 16 6 C14.35 5.67 12.7 5.34 11 5 C11 3.68 11 2.36 11 1 C10.01 1.495 10.01 1.495 9 2 C9 3.98 9 5.96 9 8 C8.34 7.34 7.68 6.68 7 6 C7 5.01 7 4.02 7 3 C4.69 3 2.38 3 0 3 C0 2.01 0 1.02 0 0 Z " fill="#ECEFE4" transform="translate(136,36)"/>
<path d="M0 0 C2.64 0 5.28 0 8 0 C8.33 2.31 8.66 4.62 9 7 C8.01 7 7.02 7 6 7 C6 5.68 6 4.36 6 3 C4.68 2.67 3.36 2.34 2 2 C2 4.64 2 7.28 2 10 C1.34 10 0.68 10 0 10 C0 6.7 0 3.4 0 0 Z " fill="#E6E6E6" transform="translate(49,154)"/>
<path d="M0 0 C0.66 0.99 1.32 1.98 2 3 C2.66 2.67 3.32 2.34 4 2 C4.33 2.99 4.66 3.98 5 5 C5.99 5 6.98 5 8 5 C8.66 4.01 9.32 3.02 10 2 C9.67 3.65 9.34 5.3 9 7 C8.01 7.33 7.02 7.66 6 8 C7.32 8.66 8.64 9.32 10 10 C3.57429353 10.36371923 3.57429353 10.36371923 1.125 8.8125 C-0.28802728 6.53595604 -0.72746534 4.65721295 -1 2 C-0.67 1.34 -0.34 0.68 0 0 Z " fill="#9A9A9A" transform="translate(113,156)"/>
<path d="M0 0 C1.32 0 2.64 0 4 0 C4.33 2.64 4.66 5.28 5 8 C4.01 8.495 4.01 8.495 3 9 C2.67 9.99 2.34 10.98 2 12 C1.34 12 0.68 12 0 12 C0 8.04 0 4.08 0 0 Z " fill="#E1E1E1" transform="translate(156,153)"/>
<path d="M0 0 C1.32 0 2.64 0 4 0 C4 3.96 4 7.92 4 12 C3.34 12 2.68 12 2 12 C2 10.68 2 9.36 2 8 C1.01 8 0.02 8 -1 8 C-0.67 5.36 -0.34 2.72 0 0 Z " fill="#C5C5C5" transform="translate(143,153)"/>
<path d="M0 0 C2.31 0 4.62 0 7 0 C6.67 1.32 6.34 2.64 6 4 C4.68 3.67 3.36 3.34 2 3 C2 3.99 2 4.98 2 6 C2.99 6.33 3.98 6.66 5 7 C4.01 7 3.02 7 2 7 C2 8.65 2 10.3 2 12 C1.34 12 0.68 12 0 12 C0 8.04 0 4.08 0 0 Z " fill="#E9E9E9" transform="translate(4,153)"/>
<path d="M0 0 C1.32 0 2.64 0 4 0 C4.66 1.98 5.32 3.96 6 6 C4.02 6 2.04 6 0 6 C0 7.65 0 9.3 0 11 C-0.66 11 -1.32 11 -2 11 C-2.33 9.02 -2.66 7.04 -3 5 C-2.360625 4.71125 -1.72125 4.4225 -1.0625 4.125 C1.15206079 3.17176549 1.15206079 3.17176549 2 1 C1.34 0.67 0.68 0.34 0 0 Z " fill="#EBEEEF" transform="translate(99,17)"/>
<path d="M0 0 C1.32 0 2.64 0 4 0 C2.96766719 2.9137441 2.32755212 3.83853065 -0.49609375 5.23046875 C-1.95208984 5.70419922 -1.95208984 5.70419922 -3.4375 6.1875 C-4.40558594 6.51105469 -5.37367187 6.83460937 -6.37109375 7.16796875 C-7.23863281 7.44253906 -8.10617188 7.71710938 -9 8 C-9.99 8.33 -10.98 8.66 -12 9 C-12 8.01 -12 7.02 -12 6 C-10.02 5.67 -8.04 5.34 -6 5 C-6 4.34 -6 3.68 -6 3 C-4.35 3 -2.7 3 -1 3 C-0.67 2.01 -0.34 1.02 0 0 Z " fill="#647FB8" transform="translate(102,67)"/>
<path d="M0 0 C1.65 0 3.3 0 5 0 C5.33 3.63 5.66 7.26 6 11 C6.66 11 7.32 11 8 11 C8 11.99 8 12.98 8 14 C6.68 14.33 5.36 14.66 4 15 C4 16.65 4 18.3 4 20 C3.67 20 3.34 20 3 20 C2.01184499 15.65211796 2.05735524 13.88528952 4 10 C4.18183703 7.30881189 4.09006824 4.7020473 4 2 C2.68 1.67 1.36 1.34 0 1 C0 0.67 0 0.34 0 0 Z " fill="#D9E9E9" transform="translate(128,59)"/>
<path d="M0 0 C2.31 0.33 4.62 0.66 7 1 C7 1.33 7 1.66 7 2 C5.35 2 3.7 2 2 2 C1.938125 2.78375 1.87625 3.5675 1.8125 4.375 C1.544375 5.24125 1.27625 6.1075 1 7 C-1.4375 8.1875 -1.4375 8.1875 -4 9 C-4.66 9.66 -5.32 10.32 -6 11 C-6.99 10.67 -7.98 10.34 -9 10 C-7.29374499 7.21611025 -6.52373261 6.14615794 -3.3125 5.25 C-2.1678125 5.12625 -2.1678125 5.12625 -1 5 C-0.67 3.35 -0.34 1.7 0 0 Z " fill="#627EB3" transform="translate(132,74)"/>
<path d="M0 0 C0.66 0.33 1.32 0.66 2 1 C2.25 6.625 2.25 6.625 0 10 C-3.125 10.1875 -3.125 10.1875 -6 10 C-6 7.03 -6 4.06 -6 1 C-5.67 1 -5.34 1 -5 1 C-5 2.98 -5 4.96 -5 7 C-3.35 6.34 -1.7 5.68 0 5 C0 3.35 0 1.7 0 0 Z " fill="#9C9C9C" transform="translate(57,155)"/>
<path d="M0 0 C0.33 0.99 0.66 1.98 1 3 C-3.95 3 -8.9 3 -14 3 C-14.33 2.34 -14.66 1.68 -15 1 C-9.91913204 0.15318867 -5.15171623 -0.09038099 0 0 Z " fill="#FDFDFD" transform="translate(164,128)"/>
<path d="M0 0 C0.99 0.66 1.98 1.32 3 2 C3 3.32 3 4.64 3 6 C-3.15234375 5.4140625 -3.15234375 5.4140625 -5 5 C-5.33 4.34 -5.66 3.68 -6 3 C-6.66 2.67 -7.32 2.34 -8 2 C-4.75366476 -0.1642235 -3.75698557 -0.37569856 0 0 Z " fill="#A8A8A8" transform="translate(103,152)"/>
<path d="M0 0 C0.721875 0.309375 1.44375 0.61875 2.1875 0.9375 C4.80307309 1.92560539 7.25118982 2.5287754 10 3 C9.34 4.32 8.68 5.64 8 7 C4 7 4 7 1.75 5.1875 C0 3 0 3 0 0 Z " fill="#79B891" transform="translate(81,49)"/>
<path d="M0 0 C2.64 0 5.28 0 8 0 C8 0.99 8 1.98 8 3 C6.02 3 4.04 3 2 3 C1.67 5.64 1.34 8.28 1 11 C1.66 11.33 2.32 11.66 3 12 C2.01 12 1.02 12 0 12 C0 8.04 0 4.08 0 0 Z " fill="#D5D5D5" transform="translate(67,153)"/>
<path d="M0 0 C0.33 0 0.66 0 1 0 C0.67 2.31 0.34 4.62 0 7 C0.66 7 1.32 7 2 7 C2.144375 8.11375 2.28875 9.2275 2.4375 10.375 C2.78372035 13.82142047 2.78372035 13.82142047 4 16 C2.68 15.67 1.36 15.34 0 15 C-0.33 15.99 -0.66 16.98 -1 18 C-1.02698422 15.56242587 -1.04683099 13.12515085 -1.0625 10.6875 C-1.07087891 9.99720703 -1.07925781 9.30691406 -1.08789062 8.59570312 C-1.10307906 5.4516975 -1.00193327 3.00579981 0 0 Z " fill="#97C2AC" transform="translate(81,30)"/>
<path d="M0 0 C2.31 0 4.62 0 7 0 C7 0.33 7 0.66 7 1 C5.02 1 3.04 1 1 1 C1 1.99 1 2.98 1 4 C1.99 4.33 2.98 4.66 4 5 C3.67 6.32 3.34 7.64 3 9 C2.67 8.34 2.34 7.68 2 7 C1.01 7.99 0.02 8.98 -1 10 C-1 9.34 -1 8.68 -1 8 C-1.66 7.67 -2.32 7.34 -3 7 C-2.01 4.69 -1.02 2.38 0 0 Z " fill="#7D7D7D" transform="translate(185,103)"/>
<path d="M0 0 C1.98 0 3.96 0 6 0 C5.6875 1.9375 5.6875 1.9375 5 4 C1.44757118 5.18414294 0.30169438 4.69535532 -3.1875 3.5625 C-4.08855469 3.27503906 -4.98960937 2.98757812 -5.91796875 2.69140625 C-6.60503906 2.46324219 -7.29210937 2.23507813 -8 2 C-4.90279155 1.12159004 -3.09354597 1.00564594 0 2 C0 1.34 0 0.68 0 0 Z " fill="#D5D475" transform="translate(134,52)"/>
<path d="M0 0 C1.32 0.66 2.64 1.32 4 2 C4 2.99 4 3.98 4 5 C3.360625 5.28875 2.72125 5.5775 2.0625 5.875 C-0.15206079 6.82823451 -0.15206079 6.82823451 -1 9 C-2.65 9 -4.3 9 -6 9 C-5.01 8.67 -4.02 8.34 -3 8 C-2.38932856 6.14255793 -2.38932856 6.14255793 -2 4 C-1.36345658 2.6520257 -0.70394612 1.31403276 0 0 Z " fill="#DFEBF0" transform="translate(102,61)"/>
<path d="M0 0 C3.375 -0.125 3.375 -0.125 7 0 C9 2 9 2 9 5 C6.03 4.67 3.06 4.34 0 4 C0.66 3.67 1.32 3.34 2 3 C2 2.34 2 1.68 2 1 C1.34 0.67 0.68 0.34 0 0 Z " fill="#EAD96A" transform="translate(125,49)"/>
<path d="M0 0 C5.28 0 10.56 0 16 0 C16 0.33 16 0.66 16 1 C10.60539047 3.27141454 5.73842251 3.20413361 0 3 C0 2.01 0 1.02 0 0 Z " fill="#F2DA76" transform="translate(150,38)"/>
<path d="M0 0 C0.33 0.66 0.66 1.32 1 2 C2.86492402 2.38995102 2.86492402 2.38995102 5 2.5 C7.1875 2.65625 7.1875 2.65625 9 3 C9.33 3.66 9.66 4.32 10 5 C12.02463255 5.65213292 12.02463255 5.65213292 14 6 C14 6.66 14 7.32 14 8 C10.21760329 7.34309381 6.78158474 6.279869 3.1875 4.9375 C2.21167969 4.57527344 1.23585938 4.21304687 0.23046875 3.83984375 C-0.50558594 3.56269531 -1.24164063 3.28554687 -2 3 C-1.34 2.01 -0.68 1.02 0 0 Z " fill="#D4AE87" transform="translate(100,8)"/>
<path d="M0 0 C1.5778125 0.4021875 1.5778125 0.4021875 3.1875 0.8125 C3.1875 1.1425 3.1875 1.4725 3.1875 1.8125 C1.5375 1.8125 -0.1125 1.8125 -1.8125 1.8125 C-2.080625 2.43125 -2.34875 3.05 -2.625 3.6875 C-3.8125 5.8125 -3.8125 5.8125 -6.8125 7.8125 C-7.8025 7.8125 -8.7925 7.8125 -9.8125 7.8125 C-8.05909665 2.55228995 -5.70834172 -0.28073812 0 0 Z " fill="#E3ECF5" transform="translate(127.8125,78.1875)"/>
<path d="M0 0 C0.99 0 1.98 0 3 0 C3.25 2.75 3.25 2.75 3 6 C1 8.375 1 8.375 -1 10 C-2.23076923 4.58461538 -2.23076923 4.58461538 -1.0625 1.625 C-0.5365625 0.820625 -0.5365625 0.820625 0 0 Z " fill="#D6DCE1" transform="translate(167,69)"/>
<path d="M0 0 C0.33 0.66 0.66 1.32 1 2 C1.99 2.33 2.98 2.66 4 3 C3.67 4.98 3.34 6.96 3 9 C0.69 7.02 -1.62 5.04 -4 3 C-3.67 2.34 -3.34 1.68 -3 1 C-2.01 1.33 -1.02 1.66 0 2 C0 1.34 0 0.68 0 0 Z " fill="#A281C8" transform="translate(89,74)"/>
<path d="M0 0 C0.33 0.66 0.66 1.32 1 2 C0.40832031 2.12117188 -0.18335937 2.24234375 -0.79296875 2.3671875 C-5.03803585 3.26744643 -9.02439661 4.20456621 -13 6 C-13.33 5.34 -13.66 4.68 -14 4 C-9.53273547 0.68557793 -5.37992836 0.33990833 0 0 Z " fill="#D4BD7B" transform="translate(127,28)"/>
<path d="M0 0 C0.33 0 0.66 0 1 0 C1 1.65 1 3.3 1 5 C1.99 5 2.98 5 4 5 C4 4.34 4 3.68 4 3 C5.32 3.33 6.64 3.66 8 4 C8 4.66 8 5.32 8 6 C5.36 6.33 2.72 6.66 0 7 C-1.125 2.25 -1.125 2.25 0 0 Z " fill="#7BB98C" transform="translate(134,63)"/>
<path d="M0 0 C0.33 0.66 0.66 1.32 1 2 C1.99 1.67 2.98 1.34 4 1 C6.3406065 1.27769908 8.67624308 1.60539977 11 2 C11 2.33 11 2.66 11 3 C9.88625 3.12375 8.7725 3.2475 7.625 3.375 C3.96896323 3.6465813 3.96896323 3.6465813 2 6 C1.01 6 0.02 6 -1 6 C-0.67 4.02 -0.34 2.04 0 0 Z " fill="#E8EAE2" transform="translate(114,26)"/>
<path d="M0 0 C0.99 0 1.98 0 3 0 C3 2.97 3 5.94 3 9 C2.01 9 1.02 9 0 9 C0 6.03 0 3.06 0 0 Z " fill="#E2E2E2" transform="translate(185,153)"/>
<path d="M0 0 C-0.33 0.99 -0.66 1.98 -1 3 C-4.3 3 -7.6 3 -11 3 C-10.01 2.67 -9.02 2.34 -8 2 C-8 1.34 -8 0.68 -8 0 C-4.71303767 -0.79953138 -3.28976808 -1.09658936 0 0 Z " fill="#787878" transform="translate(126,130)"/>
<path d="M0 0 C0.99 0.33 1.98 0.66 3 1 C3.33 3.31 3.66 5.62 4 8 C1.525 7.01 1.525 7.01 -1 6 C-1.042721 4.33388095 -1.04063832 2.66617115 -1 1 C-0.67 0.67 -0.34 0.34 0 0 Z " fill="#F2F2F2" transform="translate(136,154)"/>
<path d="M0 0 C0.66 0.66 1.32 1.32 2 2 C-1.61328125 6.6875 -1.61328125 6.6875 -3 8 C-3.99 8 -4.98 8 -6 8 C-6 5 -6 5 -4.625 3.3125 C-3 2 -3 2 -1 2 C-0.67 1.34 -0.34 0.68 0 0 Z " fill="#D8DEE0" transform="translate(164,78)"/>
<path d="M0 0 C2.31 0 4.62 0 7 0 C7.5625 1.9375 7.5625 1.9375 8 4 C7 5 7 5 3.9375 5.0625 C2.968125 5.041875 1.99875 5.02125 1 5 C1.33 4.34 1.66 3.68 2 3 C2.66 3 3.32 3 4 3 C4 2.34 4 1.68 4 1 C2.68 0.67 1.36 0.34 0 0 Z " fill="#EEDA65" transform="translate(136,40)"/>
<path d="M0 0 C0.99 0 1.98 0 3 0 C2.67 1.98 2.34 3.96 2 6 C-1.75 7.125 -1.75 7.125 -4 6 C-3.525625 5.566875 -3.05125 5.13375 -2.5625 4.6875 C-0.76313043 2.97690387 -0.76313043 2.97690387 0 0 Z " fill="#A5A5A5" transform="translate(68,120)"/>
<path d="M0 0 C2.64 0 5.28 0 8 0 C7.67 1.32 7.34 2.64 7 4 C4.69 3.67 2.38 3.34 0 3 C0 2.01 0 1.02 0 0 Z " fill="#E8EFE5" transform="translate(125,46)"/>
<path d="M0 0 C1.093125 0.226875 2.18625 0.45375 3.3125 0.6875 C0.3125 2.6875 0.3125 2.6875 -2.6875 3.6875 C-3.3475 4.3475 -4.0075 5.0075 -4.6875 5.6875 C-5.3475 4.6975 -6.0075 3.7075 -6.6875 2.6875 C-4.58035839 -0.41123767 -3.86755884 -0.32775922 0 0 Z " fill="#E2EAF4" transform="translate(92.6875,70.3125)"/>
<path d="M0 0 C-0.33 1.98 -0.66 3.96 -1 6 C-3 5 -3 5 -4 2 C-4.99 2.66 -5.98 3.32 -7 4 C-6.6875 2.0625 -6.6875 2.0625 -6 0 C-3 -1 -3 -1 0 0 Z " fill="#E9EAE7" transform="translate(174,34)"/>
<path d="M0 0 C2.64 0 5.28 0 8 0 C7.38125 0.0825 6.7625 0.165 6.125 0.25 C3.83647371 0.79948083 3.83647371 0.79948083 2.875 2.9375 C2.58625 3.618125 2.2975 4.29875 2 5 C1.34 5.66 0.68 6.32 0 7 C0 4.69 0 2.38 0 0 Z " fill="#F3F3F3" transform="translate(114,154)"/>
<path d="M0 0 C4.62 0 9.24 0 14 0 C12.515 1.98 12.515 1.98 11 4 C10.29875 3.690625 9.5975 3.38125 8.875 3.0625 C5.91063343 1.96697322 3.12301892 1.43577008 0 1 C0 0.67 0 0.34 0 0 Z " fill="#B8B8B8" transform="translate(84,104)"/>
<path d="M0 0 C0.33 0 0.66 0 1 0 C1 3.3 1 6.6 1 10 C0.67 8.68 0.34 7.36 0 6 C-0.99 6 -1.98 6 -3 6 C-2.42655063 3.13275314 -2.1385485 2.1385485 0 0 Z " fill="#FBFBFB" transform="translate(145,155)"/>
<path d="M0 0 C2.31 0 4.62 0 7 0 C6.67 1.98 6.34 3.96 6 6 C5.67 4.68 5.34 3.36 5 2 C3.35 2.33 1.7 2.66 0 3 C0 2.01 0 1.02 0 0 Z " fill="#8E8E8E" transform="translate(110,103)"/>
<path d="M0 0 C0.66 0.66 1.32 1.32 2 2 C1.625 4.625 1.625 4.625 1 7 C-0.98 7 -2.96 7 -5 7 C-4 5 -4 5 -1 4 C-0.26676204 1.98491642 -0.26676204 1.98491642 0 0 Z " fill="#DBDBDB" transform="translate(123,158)"/>
<path d="M0 0 C2.97 0.495 2.97 0.495 6 1 C5.67 2.32 5.34 3.64 5 5 C2.525 4.01 2.525 4.01 0 3 C0 2.01 0 1.02 0 0 Z " fill="#D8D57A" transform="translate(100,41)"/>
<path d="M0 0 C0.33 0.66 0.66 1.32 1 2 C-0.98 2 -2.96 2 -5 2 C-5 3.65 -5 5.3 -5 7 C-5.66 7 -6.32 7 -7 7 C-7.625 5.125 -7.625 5.125 -8 3 C-5.4345406 0.4345406 -3.52313332 0.45953913 0 0 Z " fill="#E5EBE3" transform="translate(104,21)"/>
<path d="M0 0 C0 0.99 0 1.98 0 3 C-1.98 3 -3.96 3 -6 3 C-6.33 3.66 -6.66 4.32 -7 5 C-7 3.68 -7 2.36 -7 1 C-2.25 0 -2.25 0 0 0 Z " fill="#E5E5E5" transform="translate(75,153)"/>
<path d="M0 0 C2.475 0.99 2.475 0.99 5 2 C2.68143083 3.54571278 0.49361571 4.79618552 -2 6 C-1.125 1.125 -1.125 1.125 0 0 Z " fill="#7E7E7E" transform="translate(88,118)"/>
<path d="M0 0 C0.33 0 0.66 0 1 0 C2.07421875 5.95703125 2.07421875 5.95703125 2 8 C1.01 8.99 0.02 9.98 -1 11 C-0.67 7.37 -0.34 3.74 0 0 Z " fill="#768DCF" transform="translate(86,59)"/>
<path d="M0 0 C2.31 0 4.62 0 7 0 C7.33 0.66 7.66 1.32 8 2 C5.36 2.66 2.72 3.32 0 4 C0 2.68 0 1.36 0 0 Z " fill="#DBD17B" transform="translate(99,23)"/>
<path d="M0 0 C0.99 0.66 1.98 1.32 3 2 C3 2.99 3 3.98 3 5 C1.35 4.67 -0.3 4.34 -2 4 C-1.34 2.68 -0.68 1.36 0 0 Z " fill="#888888" transform="translate(27,161)"/>
<path d="M0 0 C2.475 0.495 2.475 0.495 5 1 C5 1.99 5 2.98 5 4 C4.67 3.67 4.34 3.34 4 3 C3.34 3.66 2.68 4.32 2 5 C1.34 3.35 0.68 1.7 0 0 Z " fill="#898989" transform="translate(240,152)"/>
<path d="M0 0 C0.99 0.33 1.98 0.66 3 1 C3 2.65 3 4.3 3 6 C2.01 6 1.02 6 0 6 C0 4.02 0 2.04 0 0 Z " fill="#C6C6C6" transform="translate(11,126)"/>
<path d="M0 0 C-0.66 1.32 -1.32 2.64 -2 4 C-3.65 4 -5.3 4 -7 4 C-7.33 3.34 -7.66 2.68 -8 2 C-2.25 0 -2.25 0 0 0 Z " fill="#7BB992" transform="translate(100,43)"/>
<path d="M0 0 C1.32 0.33 2.64 0.66 4 1 C4 1.99 4 2.98 4 4 C3.01 4.495 3.01 4.495 2 5 C1.34 4.67 0.68 4.34 0 4 C0 2.68 0 1.36 0 0 Z " fill="#E0706F" transform="translate(157,14)"/>
<path d="M0 0 C0.66 0 1.32 0 2 0 C2 0.66 2 1.32 2 2 C2.66 2 3.32 2 4 2 C4.33 2.99 4.66 3.98 5 5 C2.03 4.505 2.03 4.505 -1 4 C-0.67 2.68 -0.34 1.36 0 0 Z " fill="#DDE1E0" transform="translate(102,6)"/>
<path d="M0 0 C0.66 0.66 1.32 1.32 2 2 C1.34 2 0.68 2 0 2 C0 1.34 0 0.68 0 0 Z " fill="#000000" transform="translate(180,122)"/>
<path d="M0 0 C2 1 2 1 2 1 Z " fill="#000000" transform="translate(23,166)"/>
<path d="" fill="#000000" transform="translate(0,0)"/>
<path d="" fill="#000000" transform="translate(0,0)"/>
<path d="" fill="#000000" transform="translate(0,0)"/>
<path d="M0 0 C2 1 2 1 2 1 Z " fill="#000000" transform="translate(147,133)"/>
<path d="" fill="#000000" transform="translate(0,0)"/>
<path d="" fill="#000000" transform="translate(0,0)"/>
<path d="" fill="#000000" transform="translate(0,0)"/>
<path d="" fill="#000000" transform="translate(0,0)"/>
<path d="" fill="#000000" transform="translate(0,0)"/>
<path d="" fill="#000000" transform="translate(0,0)"/>
<path d="" fill="#000000" transform="translate(0,0)"/>
<path d="" fill="#000000" transform="translate(0,0)"/>
<path d="" fill="#000000" transform="translate(0,0)"/>
<path d="" fill="#000000" transform="translate(0,0)"/>
<path d="" fill="#000000" transform="translate(0,0)"/>
<path d="" fill="#000000" transform="translate(0,0)"/>
<path d="" fill="#000000" transform="translate(0,0)"/>
<path d="" fill="#000000" transform="translate(0,0)"/>
<path d="" fill="#000000" transform="translate(0,0)"/>
<path d="" fill="#000000" transform="translate(0,0)"/>
<path d="" fill="#000000" transform="translate(0,0)"/>
<path d="" fill="#000000" transform="translate(0,0)"/>
<path d="" fill="#000000" transform="translate(0,0)"/>
<path d="" fill="#000000" transform="translate(0,0)"/>
<path d="" fill="#000000" transform="translate(0,0)"/>
<path d="" fill="#000000" transform="translate(0,0)"/>
<path d="" fill="#000000" transform="translate(0,0)"/>
<path d="" fill="#000000" transform="translate(0,0)"/>
<path d="" fill="#000000" transform="translate(0,0)"/>
<path d="" fill="#000000" transform="translate(0,0)"/>
<path d="" fill="#000000" transform="translate(0,0)"/>
<path d="" fill="#000000" transform="translate(0,0)"/>
<path d="" fill="#000000" transform="translate(0,0)"/>
<path d="" fill="#000000" transform="translate(0,0)"/>
<path d="" fill="#000000" transform="translate(0,0)"/>
<path d="" fill="#000000" transform="translate(0,0)"/>
<path d="" fill="#000000" transform="translate(0,0)"/>
<path d="" fill="#000000" transform="translate(0,0)"/>
<path d="" fill="#000000" transform="translate(0,0)"/>
<path d="" fill="#000000" transform="translate(0,0)"/>
<path d="" fill="#000000" transform="translate(0,0)"/>
<path d="" fill="#000000" transform="translate(0,0)"/>
<path d="" fill="#000000" transform="translate(0,0)"/>
<path d="" fill="#000000" transform="translate(0,0)"/>
<path d="" fill="#000000" transform="translate(0,0)"/>
<path d="" fill="#000000" transform="translate(0,0)"/>
<path d="" fill="#000000" transform="translate(0,0)"/>
<path d="" fill="#000000" transform="translate(0,0)"/>
<path d="" fill="#000000" transform="translate(0,0)"/>
<path d="" fill="#000000" transform="translate(0,0)"/>
<path d="" fill="#000000" transform="translate(0,0)"/>
<path d="" fill="#000000" transform="translate(0,0)"/>
<path d="" fill="#000000" transform="translate(0,0)"/>
<path d="" fill="#000000" transform="translate(0,0)"/>
<path d="" fill="#000000" transform="translate(0,0)"/>
<path d="" fill="#000000" transform="translate(0,0)"/>
<path d="" fill="#000000" transform="translate(0,0)"/>
<path d="" fill="#000000" transform="translate(0,0)"/>
<path d="" fill="#000000" transform="translate(0,0)"/>
<path d="" fill="#000000" transform="translate(0,0)"/>
<path d="" fill="#000000" transform="translate(0,0)"/>
<path d="" fill="#000000" transform="translate(0,0)"/>
<path d="" fill="#000000" transform="translate(0,0)"/>
<path d="" fill="#000000" transform="translate(0,0)"/>
<path d="" fill="#000000" transform="translate(0,0)"/>
<path d="" fill="#000000" transform="translate(0,0)"/>
<path d="" fill="#000000" transform="translate(0,0)"/>
<path d="" fill="#000000" transform="translate(0,0)"/>
<path d="" fill="#000000" transform="translate(0,0)"/>
<path d="" fill="#000000" transform="translate(0,0)"/>
<path d="" fill="#000000" transform="translate(0,0)"/>
<path d="" fill="#000000" transform="translate(0,0)"/>
<path d="" fill="#000000" transform="translate(0,0)"/>
<path d="" fill="#000000" transform="translate(0,0)"/>
<path d="" fill="#000000" transform="translate(0,0)"/>
<path d="" fill="#000000" transform="translate(0,0)"/>
<path d="" fill="#000000" transform="translate(0,0)"/>
<path d="" fill="#000000" transform="translate(0,0)"/>
<path d="" fill="#000000" transform="translate(0,0)"/>
<path d="" fill="#000000" transform="translate(0,0)"/>
<path d="" fill="#000000" transform="translate(0,0)"/>
<path d="" fill="#000000" transform="translate(0,0)"/>
<path d="" fill="#000000" transform="translate(0,0)"/>
<path d="" fill="#000000" transform="translate(0,0)"/>
<path d="" fill="#000000" transform="translate(0,0)"/>
<path d="" fill="#000000" transform="translate(0,0)"/>
<path d="" fill="#000000" transform="translate(0,0)"/>
<path d="" fill="#000000" transform="translate(0,0)"/>
<path d="" fill="#000000" transform="translate(0,0)"/>
<path d="" fill="#000000" transform="translate(0,0)"/>
<path d="" fill="#000000" transform="translate(0,0)"/>
<path d="" fill="#000000" transform="translate(0,0)"/>
<path d="" fill="#000000" transform="translate(0,0)"/>
<path d="" fill="#000000" transform="translate(0,0)"/>
<path d="" fill="#000000" transform="translate(0,0)"/>
<path d="" fill="#000000" transform="translate(0,0)"/>
<path d="" fill="#000000" transform="translate(0,0)"/>
<path d="" fill="#000000" transform="translate(0,0)"/>
<path d="" fill="#000000" transform="translate(0,0)"/>
<path d="" fill="#000000" transform="translate(0,0)"/>
<path d="" fill="#000000" transform="translate(0,0)"/>
<path d="" fill="#000000" transform="translate(0,0)"/>
<path d="" fill="#000000" transform="translate(0,0)"/>
<path d="" fill="#000000" transform="translate(0,0)"/>
<path d="" fill="#000000" transform="translate(0,0)"/>
<path d="" fill="#000000" transform="translate(0,0)"/>
<path d="" fill="#000000" transform="translate(0,0)"/>
<path d="" fill="#000000" transform="translate(0,0)"/>
<path d="" fill="#000000" transform="translate(0,0)"/>
<path d="" fill="#000000" transform="translate(0,0)"/>
<path d="" fill="#000000" transform="translate(0,0)"/>
<path d="" fill="#000000" transform="translate(0,0)"/>
<path d="" fill="#000000" transform="translate(0,0)"/>
<path d="" fill="#000000" transform="translate(0,0)"/>
<path d="" fill="#000000" transform="translate(0,0)"/>
<path d="" fill="#000000" transform="translate(0,0)"/>
<path d="" fill="#000000" transform="translate(0,0)"/>
<path d="" fill="#000000" transform="translate(0,0)"/>
<path d="" fill="#000000" transform="translate(0,0)"/>
<path d="" fill="#000000" transform="translate(0,0)"/>
<path d="" fill="#000000" transform="translate(0,0)"/>
<path d="" fill="#000000" transform="translate(0,0)"/>
<path d="" fill="#000000" transform="translate(0,0)"/>
<path d="" fill="#000000" transform="translate(0,0)"/>
<path d="" fill="#000000" transform="translate(0,0)"/>
<path d="" fill="#000000" transform="translate(0,0)"/>
<path d="" fill="#000000" transform="translate(0,0)"/>
<path d="" fill="#000000" transform="translate(0,0)"/>
<path d="" fill="#000000" transform="translate(0,0)"/>
<path d="" fill="#000000" transform="translate(0,0)"/>
<path d="" fill="#000000" transform="translate(0,0)"/>
<path d="" fill="#000000" transform="translate(0,0)"/>
<path d="" fill="#000000" transform="translate(0,0)"/>
<path d="" fill="#000000" transform="translate(0,0)"/>
<path d="" fill="#000000" transform="translate(0,0)"/>
<path d="" fill="#000000" transform="translate(0,0)"/>
<path d="" fill="#000000" transform="translate(0,0)"/>
<path d="" fill="#000000" transform="translate(0,0)"/>
<path d="" fill="#000000" transform="translate(0,0)"/>
<path d="" fill="#000000" transform="translate(0,0)"/>
<path d="" fill="#000000" transform="translate(0,0)"/>
<path d="" fill="#000000" transform="translate(0,0)"/>
<path d="" fill="#000000" transform="translate(0,0)"/>
<path d="" fill="#000000" transform="translate(0,0)"/>
<path d="" fill="#000000" transform="translate(0,0)"/>
<path d="" fill="#000000" transform="translate(0,0)"/>
<path d="" fill="#000000" transform="translate(0,0)"/>
<path d="" fill="#000000" transform="translate(0,0)"/>
<path d="" fill="#000000" transform="translate(0,0)"/>
<path d="" fill="#000000" transform="translate(0,0)"/>
<path d="" fill="#000000" transform="translate(0,0)"/>
<path d="" fill="#000000" transform="translate(0,0)"/>
<path d="" fill="#000000" transform="translate(0,0)"/>
<path d="" fill="#000000" transform="translate(0,0)"/>
<path d="" fill="#000000" transform="translate(0,0)"/>
<path d="" fill="#000000" transform="translate(0,0)"/>
<path d="" fill="#000000" transform="translate(0,0)"/>
<path d="" fill="#000000" transform="translate(0,0)"/>
<path d="" fill="#000000" transform="translate(0,0)"/>
<path d="" fill="#000000" transform="translate(0,0)"/>
<path d="" fill="#000000" transform="translate(0,0)"/>
<path d="" fill="#000000" transform="translate(0,0)"/>
<path d="" fill="#000000" transform="translate(0,0)"/>
<path d="" fill="#000000" transform="translate(0,0)"/>
<path d="" fill="#000000" transform="translate(0,0)"/>
<path d="" fill="#000000" transform="translate(0,0)"/>
<path d="" fill="#000000" transform="translate(0,0)"/>
<path d="" fill="#000000" transform="translate(0,0)"/>
<path d="" fill="#000000" transform="translate(0,0)"/>
<path d="" fill="#000000" transform="translate(0,0)"/>
<path d="" fill="#000000" transform="translate(0,0)"/>
<path d="" fill="#000000" transform="translate(0,0)"/>
<path d="" fill="#000000" transform="translate(0,0)"/>
<path d="" fill="#000000" transform="translate(0,0)"/>
<path d="" fill="#000000" transform="translate(0,0)"/>
<path d="" fill="#000000" transform="translate(0,0)"/>
<path d="" fill="#000000" transform="translate(0,0)"/>
<path d="" fill="#000000" transform="translate(0,0)"/>
<path d="" fill="#000000" transform="translate(0,0)"/>
<path d="" fill="#000000" transform="translate(0,0)"/>
<path d="" fill="#000000" transform="translate(0,0)"/>
<path d="" fill="#000000" transform="translate(0,0)"/>
<path d="" fill="#000000" transform="translate(0,0)"/>
<path d="" fill="#000000" transform="translate(0,0)"/>
<path d="" fill="#000000" transform="translate(0,0)"/>
<path d="" fill="#000000" transform="translate(0,0)"/>
<path d="" fill="#000000" transform="translate(0,0)"/>
<path d="" fill="#000000" transform="translate(0,0)"/>
<path d="" fill="#000000" transform="translate(0,0)"/>
<path d="" fill="#000000" transform="translate(0,0)"/>
<path d="" fill="#000000" transform="translate(0,0)"/>
<path d="" fill="#000000" transform="translate(0,0)"/>
<path d="" fill="#000000" transform="translate(0,0)"/>
<path d="" fill="#000000" transform="translate(0,0)"/>
<path d="" fill="#000000" transform="translate(0,0)"/>
<path d="" fill="#000000" transform="translate(0,0)"/>
<path d="" fill="#000000" transform="translate(0,0)"/>
<path d="" fill="#000000" transform="translate(0,0)"/>
<path d="" fill="#000000" transform="translate(0,0)"/>
<path d="" fill="#000000" transform="translate(0,0)"/>
<path d="" fill="#000000" transform="translate(0,0)"/>
<path d="" fill="#000000" transform="translate(0,0)"/>
<path d="" fill="#000000" transform="translate(0,0)"/>
<path d="" fill="#000000" transform="translate(0,0)"/>
<path d="" fill="#000000" transform="translate(0,0)"/>
<path d="" fill="#000000" transform="translate(0,0)"/>
<path d="" fill="#000000" transform="translate(0,0)"/>
<path d="" fill="#000000" transform="translate(0,0)"/>
<path d="" fill="#000000" transform="translate(0,0)"/>
<path d="" fill="#000000" transform="translate(0,0)"/>
<path d="" fill="#000000" transform="translate(0,0)"/>
<path d="" fill="#000000" transform="translate(0,0)"/>
<path d="" fill="#000000" transform="translate(0,0)"/>
<path d="" fill="#000000" transform="translate(0,0)"/>
<path d="" fill="#000000" transform="translate(0,0)"/>
<path d="" fill="#000000" transform="translate(0,0)"/>
<path d="" fill="#000000" transform="translate(0,0)"/>
<path d="" fill="#000000" transform="translate(0,0)"/>
<path d="" fill="#000000" transform="translate(0,0)"/>
<path d="" fill="#000000" transform="translate(0,0)"/>
<path d="" fill="#000000" transform="translate(0,0)"/>
<path d="" fill="#000000" transform="translate(0,0)"/>
<path d="" fill="#000000" transform="translate(0,0)"/>
<path d="" fill="#000000" transform="translate(0,0)"/>
<path d="" fill="#000000" transform="translate(0,0)"/>
<path d="" fill="#000000" transform="translate(0,0)"/>
<path d="" fill="#000000" transform="translate(0,0)"/>
<path d="" fill="#000000" transform="translate(0,0)"/>
<path d="" fill="#000000" transform="translate(0,0)"/>
<path d="" fill="#000000" transform="translate(0,0)"/>
<path d="" fill="#000000" transform="translate(0,0)"/>
<path d="" fill="#000000" transform="translate(0,0)"/>
<path d="" fill="#000000" transform="translate(0,0)"/>
<path d="" fill="#000000" transform="translate(0,0)"/>
<path d="" fill="#000000" transform="translate(0,0)"/>
<path d="" fill="#000000" transform="translate(0,0)"/>
<path d="" fill="#000000" transform="translate(0,0)"/>
<path d="" fill="#000000" transform="translate(0,0)"/>
<path d="" fill="#000000" transform="translate(0,0)"/>
<path d="" fill="#000000" transform="translate(0,0)"/>
<path d="" fill="#000000" transform="translate(0,0)"/>
<path d="" fill="#000000" transform="translate(0,0)"/>
<path d="" fill="#000000" transform="translate(0,0)"/>
<path d="" fill="#000000" transform="translate(0,0)"/>
<path d="" fill="#000000" transform="translate(0,0)"/>
<path d="" fill="#000000" transform="translate(0,0)"/>
<path d="" fill="#000000" transform="translate(0,0)"/>
<path d="" fill="#000000" transform="translate(0,0)"/>
<path d="" fill="#000000" transform="translate(0,0)"/>
<path d="" fill="#000000" transform="translate(0,0)"/>
<path d="" fill="#000000" transform="translate(0,0)"/>
<path d="" fill="#000000" transform="translate(0,0)"/>
<path d="" fill="#000000" transform="translate(0,0)"/>
<path d="" fill="#000000" transform="translate(0,0)"/>
<path d="" fill="#000000" transform="translate(0,0)"/>
<path d="" fill="#000000" transform="translate(0,0)"/>
<path d="" fill="#000000" transform="translate(0,0)"/>
<path d="" fill="#000000" transform="translate(0,0)"/>
<path d="" fill="#000000" transform="translate(0,0)"/>
<path d="" fill="#000000" transform="translate(0,0)"/>
<path d="" fill="#000000" transform="translate(0,0)"/>
<path d="" fill="#000000" transform="translate(0,0)"/>
<path d="" fill="#000000" transform="translate(0,0)"/>
<path d="" fill="#000000" transform="translate(0,0)"/>
<path d="" fill="#000000" transform="translate(0,0)"/>
<path d="" fill="#000000" transform="translate(0,0)"/>
<path d="" fill="#000000" transform="translate(0,0)"/>
<path d="" fill="#000000" transform="translate(0,0)"/>
<path d="" fill="#000000" transform="translate(0,0)"/>
<path d="" fill="#000000" transform="translate(0,0)"/>
<path d="" fill="#000000" transform="translate(0,0)"/>
<path d="" fill="#000000" transform="translate(0,0)"/>
<path d="" fill="#000000" transform="translate(0,0)"/>
<path d="" fill="#000000" transform="translate(0,0)"/>
<path d="" fill="#000000" transform="translate(0,0)"/>
<path d="" fill="#000000" transform="translate(0,0)"/>
<path d="" fill="#000000" transform="translate(0,0)"/>
<path d="" fill="#000000" transform="translate(0,0)"/>
<path d="" fill="#000000" transform="translate(0,0)"/>
<path d="" fill="#000000" transform="translate(0,0)"/>
<path d="" fill="#000000" transform="translate(0,0)"/>
<path d="" fill="#000000" transform="translate(0,0)"/>
<path d="" fill="#000000" transform="translate(0,0)"/>
<path d="" fill="#000000" transform="translate(0,0)"/>
<path d="" fill="#000000" transform="translate(0,0)"/>
<path d="" fill="#000000" transform="translate(0,0)"/>
<path d="" fill="#000000" transform="translate(0,0)"/>
<path d="" fill="#000000" transform="translate(0,0)"/>
<path d="" fill="#000000" transform="translate(0,0)"/>
<path d="" fill="#000000" transform="translate(0,0)"/>
<path d="" fill="#000000" transform="translate(0,0)"/>
<path d="" fill="#000000" transform="translate(0,0)"/>
<path d="" fill="#000000" transform="translate(0,0)"/>
<path d="" fill="#000000" transform="translate(0,0)"/>
<path d="" fill="#000000" transform="translate(0,0)"/>
</svg>
